<svg xmlns="http://www.w3.org/2000/svg" version="1.1" xmlns:xlink="http://www.w3.org/1999/xlink" width="512" height="512" x="0" y="0" viewBox="0 0 256 256" style="enable-background:new 0 0 512 512" xml:space="preserve" class=""><g><path d="M125.5 233.572a76.4 76.4 0 0 1-25.487-4.345 4 4 0 0 1 2.662-7.545 68.613 68.613 0 0 0 91.388-64.672c0-33.575-54.624-111.094-68.563-130.328-13.939 19.234-68.562 96.753-68.562 130.328a4 4 0 0 1-8 0c0-40.935 70.364-135.488 73.359-139.493a4 4 0 0 1 6.406 0c3 4 73.36 98.558 73.36 139.493a76.649 76.649 0 0 1-76.563 76.562z" fill="#2ad9ff" opacity="1" data-original="#000000" class=""></path><path d="M70.356 240.087a4 4 0 0 1-3.934-3.278c-.046-.244-5.035-25.333-29.984-37.566a4 4 0 0 1 0-7.183c25.086-12.3 29.938-37.316 29.984-37.567a4 4 0 0 1 3.934-3.278 4 4 0 0 1 3.935 3.278c.046.243 5.034 25.333 29.984 37.567a4 4 0 0 1 0 7.183c-25.087 12.3-29.938 37.314-29.984 37.566a4 4 0 0 1-3.935 3.278zm-24-44.436a64.471 64.471 0 0 1 24 27.979 64.482 64.482 0 0 1 24-27.979 64.461 64.461 0 0 1-24-27.979 64.451 64.451 0 0 1-24.001 27.979zM217.8 128.6a4 4 0 0 1-3.935-3.279 33.935 33.935 0 0 0-17.971-22.46 4 4 0 0 1 0-7.183 34.19 34.19 0 0 0 17.971-22.46 4 4 0 0 1 7.869 0 33.941 33.941 0 0 0 17.972 22.46 4 4 0 0 1 0 7.183 34.194 34.194 0 0 0-17.972 22.46 4 4 0 0 1-3.934 3.279zm-12.373-29.33a41.705 41.705 0 0 1 12.373 14.174 41.7 41.7 0 0 1 12.374-14.178A41.7 41.7 0 0 1 217.8 85.087a41.707 41.707 0 0 1-12.371 14.179zM38.2 77.927h-.016a3.994 3.994 0 0 1-3.92-3.271A33.941 33.941 0 0 0 16.292 52.2a4 4 0 0 1 0-7.183 33.942 33.942 0 0 0 17.975-22.48 4.008 4.008 0 0 1 3.933-3.255h.017a4 4 0 0 1 3.92 3.271A33.935 33.935 0 0 0 60.1 45.013a4 4 0 0 1 0 7.183 33.935 33.935 0 0 0-17.97 22.476 4.009 4.009 0 0 1-3.93 3.255zM25.824 48.6A41.7 41.7 0 0 1 38.2 62.783 41.707 41.707 0 0 1 50.571 48.6 41.7 41.7 0 0 1 38.2 34.426 41.689 41.689 0 0 1 25.824 48.6z" fill="#2ad9ff" opacity="1" data-original="#000000" class=""></path></g></svg>