<svg version="1.2" xmlns="http://www.w3.org/2000/svg" viewBox="0 0 1080 1080" width="1080" height="1080">
	<style>
		.s0 { fill: #236793 } 
		.s1 { fill: #2793d3 } 
		.s2 { fill: #32b8e0 } 
		.s3 { fill: #0b5f9f } 
	</style>
	<path class="s0" d="m540 196.63c-189.34 0-343.36 154.02-343.36 343.36 0 189.34 154.02 343.36 343.36 343.36 189.34 0 343.37-154.02 343.37-343.36 0-189.34-154.03-343.36-343.37-343.36zm0 13.12c182.38 0 330.24 147.86 330.24 330.24 0 182.38-147.86 330.24-330.24 330.24-182.38 0-330.23-147.86-330.23-330.24 0-182.38 147.85-330.24 330.23-330.24z"/>
	<path class="s0" d="m540-0.03c-257.63 0-479.38 181.99-529.64 434.67-50.26 252.68 84.97 505.68 322.99 604.27 238.02 98.59 512.54 15.31 655.67-198.9 143.13-214.21 115.01-499.7-67.16-681.87-24.95-25.1-52.33-47.66-81.72-67.36-29.4-19.7-60.67-36.44-93.36-49.98-32.7-13.54-66.65-23.82-101.36-30.67-34.72-6.86-70.03-10.26-105.42-10.16zm0 13.12c291.01 0 526.9 235.9 526.9 526.9 0 291-235.89 526.9-526.9 526.9-291 0-526.89-235.9-526.89-526.9 0-291 235.89-526.9 526.89-526.9z"/>
	<path class="s1" d="m223.98 580.88c9.03-12.41 22.71-18.84 34.26-15.85 7.7 2 14.56 8.22 18.22 14.27 6.91 11.39 6.58 22.74 6.53 35.43l-0.12 35.54q-0.12 36.11-0.25 72.2l29.36 0.52c0 0-0.29-41.63-0.36-87.07 0-27.39 0-22.78 0-43.98 0-13.82-0.92-27.82 0-41.54 1.73-23.17 13.14-47.3 26.71-65.81 9.45-12.88 20.57-27.08 37.1-30.89 14.35-3.34 29.36 2.12 39.3 12.71q2.88 3.06 5.14 6.61 2.26 3.54 3.83 7.44 1.56 3.91 2.37 8.03 0.82 4.12 0.86 8.33v234.1l64.72 7.92c-0.16-9.34-2.54-159.23-1.33-284.38q0-10.14 0.67-20.25 0.67-10.12 1.99-20.16 1.33-10.05 3.31-19.99 1.97-9.94 4.6-19.73 2.49-9.51 5.7-18.8 3.2-9.29 7.1-18.31 3.91-9.02 8.48-17.71 4.58-8.7 9.8-17.02c15.67-24.71 33.9-52.59 65.37-58.39q0.7-0.13 1.4-0.25 0.7-0.12 1.4-0.22 0.71-0.1 1.41-0.18 0.71-0.08 1.42-0.14 1.11-0.1 2.23-0.15 1.12-0.06 2.24-0.08 1.12-0.03 2.24-0.01 1.11 0.01 2.23 0.06 6.54 0.8 12.87 2.6 6.33 1.82 12.3 4.6 5.96 2.78 11.42 6.47 5.46 3.68 10.26 8.18c6.17 5.87 17.1 18.22 26.41 54.93 5.66 22.31 7.48 40.79 8.98 78.2 1.73 43.64 1.33 81.51 1.52 123.39 0 20.29 0 40.56-0.76 60.83-1.31 39.72-2.52 97.9-1.28 169.73l75.98 5.28c13.79-14.84 26.2-30.9 37.06-48 10.86-17.1 20.13-35.15 27.7-53.94 7.56-18.79 13.4-38.23 17.42-58.08 4.03-19.85 6.22-40.03 6.57-60.28 1.28-67.04-27.63-138.64-68.14-191.24-9.92-12.87-20.8-24.97-32.54-36.2-11.74-11.23-24.32-21.55-37.63-30.87-13.3-9.33-27.3-17.63-41.86-24.84-14.56-7.21-29.64-13.3-45.12-18.23q-3.41-1.25-6.88-2.34-3.46-1.1-6.96-2.04-3.51-0.95-7.05-1.74-3.55-0.79-7.12-1.43c-12.8-2.07-21.94-3.56-32.68-0.47-9.94 2.87-16.25 8.28-28.44 19q-3.04 2.67-6 5.44-2.95 2.77-5.81 5.64-2.85 2.88-5.61 5.84-2.76 2.97-5.41 6.03l-57.95 58.2-68.22 68.35q-34.09 34.19-68.19 68.35l-58.11 58.23-38 37.99-9.2 9.24z"/>
	<path class="s2" d="m290.64 735.67h100.85v-36.72h25.09v46.23c24.77 2.9 50.96 5.18 78.49 6.6q15.31 0.79 30.64 1.18 15.33 0.39 30.66 0.39 15.34 0 30.67-0.39 15.33-0.39 30.64-1.18v-52.83h60.75v67.54l75.16 6.63c-10.34 9.74-21.3 18.79-32.81 27.1-11.51 8.32-23.55 15.88-36.03 22.65-12.49 6.76-25.4 12.71-38.66 17.81-13.25 5.1-26.82 9.33-40.62 12.68-25.9 6.01-51.41 6.9-77.71 4.87l-4.11-0.33c-52.5-4.11-106.27-18.67-151.31-46.51-5.18-3.23-10.36-6.66-15.32-10.36q-9.43-6.91-18.33-14.49-8.9-7.58-17.23-15.78-8.33-8.21-16.05-16.99-7.71-8.78-14.77-18.1z"/>
	<path class="s3" d="m250.31 665.05q0.63-21.29 1.23-42.6 0.81-4.3 2.3-8.41 1.49-4.11 3.62-7.93 2.13-3.82 4.85-7.24 2.73-3.42 5.96-6.36-0.25-1.17-0.7-2.28-0.45-1.1-1.08-2.11-0.63-1.02-1.43-1.91-0.79-0.89-1.73-1.63c-4.52-3.45-11.22-3.45-16.9-0.17q-2.08 1.92-3.9 4.09-1.83 2.17-3.36 4.55-1.52 2.39-2.74 4.94-1.21 2.56-2.09 5.26c-3.33 10.24-1.73 18.86-0.17 26.59q0.97 4.79 2.49 9.44 1.51 4.65 3.55 9.1 2.04 4.44 4.57 8.63 2.54 4.18 5.53 8.04z"/>
	<path class="s3" d="m376.03 572.8q0.21-8.79 1.82-17.43 1.61-8.64 4.58-16.92 2.98-8.27 7.24-15.96 4.26-7.69 9.69-14.6c3.22-4.11 8-8.17 10.49-12.73 4.02-7.36-2.77-16.87-7.74-22.02-4.97-5.14-19.88-14.52-27.54-9.2-15.77 10.89-26.29 26.89-33.49 44.41-8.37 20.38-14.56 42.78-13.99 64.97 0.37 14.02 0 28.1 0 42.12v109.16h46.21q1.39-75.92 2.73-151.8z"/>
	<path class="s3" d="m506.71 738.31h100.37l1.4-291.26q1.83-10.87 4.53-21.56 2.7-10.69 6.24-21.13 3.55-10.43 7.92-20.55 4.37-10.12 9.54-19.86 1.68-3.15 3.45-6.25 1.77-3.11 3.63-6.16 1.86-3.05 3.79-6.05 1.94-3 3.97-5.94c5.04-7.38 15.31-16.1 16.76-25.13 1.26-7.99-3.8-16.82-7.32-23.66q-2.35-4.76-5.47-9.06-3.13-4.29-6.94-7.99-3.81-3.7-8.19-6.69-4.39-3-9.22-5.2c-13.2-5.75-31.59-8.41-44.63-0.9-15.12 8.64-28.51 26.65-38.23 40.69-28.61 41.31-41.55 97.95-41.55 147.73v288.97z"/>
	<path class="s3" d="m518.05 258.5l-25.48 25.75-1.2-41.86 26.96-17.82q-0.15 16.96-0.28 33.93z"/>
	<path class="s3" d="m476.85 296.05l-25.49 25.76-1.16-41.88 26.69-27.76z"/>
	<path class="s3" d="m436.39 339.38l-25.49 25.74-1.19-41.86 26.68-27.78z"/>
	<path class="s3" d="m395.74 379.87l-26.7 28.88-0.28-38.57 27.01-30.51z"/>
	<path class="s3" d="m353.5 422.09l-26.27 26.72-0.15-32.81 25.66-29.24q0.39 17.72 0.76 35.33z"/>
	<path class="s3" d="m314.94 462.95l-29.98 29.45-0.8-30.38 29.98-31.08z"/>
	<path class="s3" d="m273.73 504.16l-28.39 27.47q-0.15-12.9-0.28-25.76l28.67-29.19z"/>
	<path class="s3" d="m233.32 544l-11.53 10.74-0.18-23.5 11.26-9.17z"/>
	<path class="s3" d="m534.58 220.74q0.19 9.9 0.38 19.8l18.41-16.44z"/>
	<path class="s0" d="m429.91 69.29q0.33 1.47 0.66 2.95-1.48 0.46-2.89 1.09-1.42 0.63-2.75 1.41-1.33 0.79-2.56 1.73-1.22 0.94-2.33 2.02-1.26 1.54-2.31 3.23-1.06 1.68-1.9 3.48-0.83 1.8-1.44 3.69-0.61 1.9-0.99 3.85-2.93 12.66-5.3 25.43-2.38 12.78-4.18 25.65-1.81 12.87-3.04 25.81-1.24 12.93-1.9 25.91l-2.95 1.12q-9.53-9.35-19.5-18.22-9.98-8.87-20.38-17.24-10.4-8.37-21.19-16.22-10.8-7.84-21.98-15.15-1.08-0.78-2.22-1.5-1.13-0.72-2.3-1.37-1.17-0.65-2.38-1.23-1.21-0.58-2.46-1.08-0.95-0.24-1.92-0.38-0.97-0.14-1.95-0.18-0.99-0.04-1.97 0.02-0.98 0.07-1.94 0.23-1.36 0.27-2.69 0.64-1.33 0.36-2.63 0.82-1.3 0.46-2.56 1.02-1.27 0.55-2.49 1.2l-1.48-2.61q6.63-3.79 13.37-7.37 6.74-3.59 13.58-6.98 6.85-3.39 13.79-6.57 6.94-3.18 13.97-6.16 0.6 1.38 1.17 2.77c-6.09 3.1-9.77 5.75-11.1 7.71q-0.47 0.59-0.77 1.28-0.29 0.68-0.39 1.43-0.1 0.74 0 1.48 0.1 0.74 0.4 1.43c1.14 2.45 4.4 5.59 9.7 9.5q7.32 5.41 14.46 11.07 7.13 5.65 14.08 11.54 6.94 5.89 13.68 12.01 6.75 6.11 13.29 12.45 0.68-8.84 1.63-17.65 0.95-8.82 2.17-17.6 1.21-8.79 2.69-17.53 1.47-8.74 3.21-17.44c1.37-6.9 1.81-11.57 1.14-13.91-0.41-1.52-1.73-2.7-4.2-3.46-2.46-0.76-6.04-0.81-10.96 0.09l-1.83 0.31-0.88-2.87q21.65-6.84 43.72-11.65z"/>
	<path class="s0" d="m484.38 119.35q1.95 15.92 3.92 31.84c0.86 6.91 2.19 11.06 3.97 12.54 2.45 2.11 5.82 2.92 10.19 2.52l4.42-0.4c0 1.01 0.16 2.01 0.24 3.01q-6.14 0.51-12.26 1.2-6.12 0.69-12.22 1.56-6.1 0.88-12.16 1.94-6.07 1.05-12.11 2.29-0.3-1.48-0.6-2.93l4.28-0.87c4.82-0.93 8-3.02 9.6-6.37 0.85-1.85 0.78-5.85-0.24-12.09q-5.75-35.12-11.52-70.21-1.72-10.36-4.94-12.28c-3.12-1.88-7.42-2.35-12.83-1.3l-5.37 1.07q-0.29-1.45-0.6-2.93 6.55-1.35 13.14-2.52 6.59-1.18 13.21-2.19 6.62-1 13.26-1.83 6.64-0.83 13.3-1.49c13-1.3 23.35-0.85 30.89 0.88q2.66 0.55 5.22 1.47 2.55 0.91 4.96 2.16 2.41 1.25 4.62 2.81 2.22 1.57 4.2 3.42 1.79 1.63 3.19 3.59 1.4 1.97 2.35 4.19 0.95 2.23 1.4 4.6 0.46 2.37 0.4 4.79 0 3.18-0.72 6.27-0.73 3.1-2.14 5.95-1.4 2.86-3.42 5.31-2.02 2.46-4.55 4.4c-6.99 5.71-16.61 8.77-29.22 9.72q-4.63 0.34-10.08 0.29-5.48-0.05-11.78-0.41zm-0.57-4.59q5.17 0.18 9.12 0.19c2.64 0 4.89 0 6.73-0.25q2.37-0.17 4.67-0.76 2.3-0.59 4.46-1.58 2.16-0.99 4.11-2.35 1.94-1.36 3.62-3.04 1.73-1.67 3.06-3.66 1.33-2 2.2-4.24 0.88-2.23 1.25-4.6 0.37-2.38 0.22-4.77-0.05-1.75-0.35-3.47-0.29-1.73-0.83-3.39-0.53-1.67-1.29-3.24-0.77-1.58-1.74-3.03-1-1.49-2.22-2.81-1.22-1.32-2.64-2.42-1.42-1.1-3-1.95-1.58-0.86-3.28-1.45-1.93-0.66-3.92-1.1-1.99-0.45-4.01-0.66-2.03-0.22-4.07-0.21-2.04 0.01-4.06 0.24-1.74 0.21-3.46 0.5-1.73 0.3-3.44 0.68-1.71 0.38-3.39 0.85-1.69 0.46-3.35 1.01 2.8 22.78 5.61 45.51z"/>
	<path class="s0" d="m592.73 118.85q-1.73 15.92-3.65 31.88c-0.77 6.9-0.45 11.26 0.94 13.1 1.89 2.63 4.97 4.22 9.32 4.84l4.39 0.66-0.47 2.97q-6.08-0.95-12.18-1.71-6.1-0.76-12.23-1.33-6.12-0.58-12.26-0.97-6.14-0.39-12.29-0.59l0.11-3 4.33 0.17c4.89 0.21 8.46-1.07 10.79-3.95q1.9-2.39 2.59-11.78l5.19-70.98q0.78-10.37-1.9-13.07c-2.59-2.57-6.65-4.02-12.09-4.27l-5.44-0.2 0.1-3.01q6.68 0.23 13.35 0.62 6.66 0.4 13.32 0.97 6.66 0.56 13.3 1.3 6.64 0.73 13.25 1.64c12.96 1.72 22.96 4.66 29.93 8.11q2.45 1.17 4.73 2.66 2.27 1.48 4.32 3.26 2.05 1.78 3.84 3.82 1.79 2.04 3.29 4.3 1.37 2 2.28 4.24 0.9 2.25 1.31 4.63 0.41 2.39 0.3 4.8-0.11 2.42-0.73 4.76-0.75 3.09-2.19 5.94-1.43 2.84-3.48 5.28-2.05 2.44-4.59 4.36-2.55 1.91-5.47 3.19c-8.18 3.9-18.3 4.61-30.81 2.57q-4.59-0.75-9.89-2.07c-3.54-0.88-7.29-1.92-11.31-3.14zm0.51-4.61q5 1.41 8.85 2.33 3.85 0.92 6.61 1.35 2.35 0.38 4.73 0.34 2.38-0.04 4.71-0.49 2.33-0.46 4.55-1.32 2.22-0.87 4.25-2.11 2.07-1.21 3.83-2.83 1.76-1.63 3.14-3.59 1.37-1.97 2.29-4.18 0.92-2.22 1.34-4.58 0.37-1.72 0.49-3.47 0.12-1.76-0.01-3.51-0.13-1.75-0.51-3.47-0.37-1.72-0.99-3.36-0.62-1.69-1.51-3.26-0.89-1.56-2.02-2.96-1.13-1.4-2.47-2.6-1.34-1.2-2.86-2.17-1.72-1.09-3.55-1.99-1.84-0.9-3.76-1.59-1.92-0.69-3.91-1.17-1.98-0.47-4.01-0.72-1.74-0.2-3.49-0.32-1.75-0.11-3.5-0.14-1.75-0.03-3.5 0.03-1.75 0.06-3.5 0.2-2.59 22.82-5.2 45.58z"/>
	<path class="s0" d="m755.19 193.09l2.42 2q-12.09 10.36-23.66 21.07-9.96-5.35-20.2-10.14-10.24-4.78-20.73-9-10.5-4.21-21.2-7.84-10.71-3.63-21.6-6.66l0.81-2.88 4.21 1.19c4.73 1.38 8.53 0.98 11.5-1.25q2.54-1.91 5.44-10.88l21.86-67.62q3.18-9.83 1.13-13.21c-1.94-3.11-5.58-5.51-10.9-7.05l-5.28-1.5 0.79-2.9q8.05 2.24 16.03 4.75 7.98 2.5 15.87 5.26 7.89 2.76 15.69 5.78 7.8 3.01 15.49 6.28-0.58 1.37-1.17 2.76c-7.2-3.11-12.52-4.59-15.85-4.68q-0.98-0.09-1.96-0.03-0.98 0.07-1.94 0.29-0.96 0.22-1.87 0.59-0.91 0.37-1.75 0.88c-1.72 1.22-3.64 4.92-5.9 11.07l-23.9 64.88q-2.33 6.33-1.88 9.18 0.11 0.51 0.31 0.99 0.2 0.48 0.48 0.92 0.27 0.44 0.62 0.83 0.34 0.39 0.74 0.72c1.18 1.03 5.32 2.88 12.4 5.84q3.99 1.72 7.97 3.45c8.35 3.71 14.4 6.01 18.28 6.56q1.53 0.2 3.08 0.23 1.54 0.03 3.08-0.11 1.54-0.14 3.05-0.46 1.52-0.32 2.99-0.8 2.08-0.77 4.11-1.69 2.03-0.92 3.98-1.99 1.95-1.07 3.82-2.28 1.87-1.21 3.64-2.55z"/>
	<path class="s0" d="m99.4 631.34l-11.74 2.96q-0.55 0.1-1.09 0.24-0.54 0.14-1.06 0.33-0.53 0.19-1.04 0.41-0.51 0.23-0.99 0.5-0.2 0.17-0.37 0.36-0.17 0.2-0.31 0.42-0.13 0.22-0.23 0.46-0.09 0.24-0.15 0.49-0.04 0.5-0.04 1 0 0.5 0.06 1 0.05 0.5 0.16 0.99 0.1 0.49 0.26 0.96l-1.14 0.3-5.27-20.95 1.14-0.29q0.09 0.49 0.23 0.98 0.14 0.49 0.33 0.95 0.19 0.47 0.43 0.92 0.24 0.44 0.53 0.86 0.16 0.2 0.36 0.37 0.19 0.17 0.41 0.31 0.22 0.13 0.46 0.23 0.24 0.1 0.49 0.16 0.56 0 1.11-0.04 0.56-0.04 1.11-0.12 0.55-0.09 1.09-0.21 0.54-0.13 1.06-0.3l27.2-6.91q0.55-0.1 1.09-0.24 0.54-0.15 1.06-0.33 0.53-0.19 1.04-0.42 0.5-0.23 0.99-0.5 0.2-0.16 0.36-0.36 0.17-0.19 0.3-0.41 0.13-0.22 0.23-0.46 0.09-0.24 0.15-0.49 0.05-0.5 0.05-1-0.01-0.5-0.06-1-0.05-0.5-0.16-0.99-0.11-0.49-0.26-0.97l1.14-0.29 4.78 18.99q0.4 1.36 0.72 2.74 0.31 1.38 0.52 2.78 0.22 1.39 0.34 2.8 0.12 1.41 0.15 2.82-0.04 0.9-0.22 1.78-0.18 0.88-0.49 1.72-0.32 0.84-0.76 1.62-0.44 0.78-1 1.48-0.57 0.72-1.26 1.33-0.68 0.61-1.46 1.1-0.77 0.49-1.62 0.85-0.85 0.35-1.74 0.55-1.07 0.3-2.18 0.37-1.12 0.06-2.21-0.11-1.1-0.17-2.14-0.57-1.04-0.4-1.97-1.02-0.69-0.5-1.31-1.08-0.63-0.58-1.18-1.24-0.55-0.65-1.01-1.37-0.46-0.72-0.83-1.49l-11.71 13.4q-0.39 0.42-0.76 0.85-0.36 0.44-0.71 0.89-0.34 0.45-0.66 0.92-0.32 0.47-0.62 0.95-0.16 0.37-0.26 0.76-0.1 0.39-0.15 0.79-0.04 0.4-0.02 0.8 0.02 0.4 0.1 0.8l-1.13 0.27-3.25-12.88 15.78-17.99zm20.55-5.19l-18.35 4.63 0.43 1.73q0.16 0.8 0.39 1.59 0.24 0.79 0.53 1.55 0.3 0.76 0.66 1.5 0.36 0.74 0.78 1.44 0.33 0.47 0.74 0.87 0.4 0.41 0.88 0.73 0.47 0.33 0.99 0.57 0.52 0.24 1.07 0.38 0.7 0.17 1.41 0.24 0.71 0.08 1.43 0.06 0.71-0.02 1.42-0.13 0.7-0.12 1.39-0.32 0.97-0.16 1.89-0.5 0.92-0.34 1.76-0.86 0.84-0.51 1.56-1.17 0.73-0.66 1.32-1.44 0.45-0.88 0.71-1.83 0.27-0.95 0.33-1.94 0.07-0.98-0.06-1.96-0.14-0.98-0.47-1.91z"/>
	<path class="s0" d="m96.89 688.02l-1.1 0.38-7.01-20.93 1.12-0.38 0.43 1.33q0.11 0.37 0.26 0.72 0.15 0.35 0.35 0.68 0.2 0.33 0.44 0.63 0.24 0.3 0.52 0.56 0.2 0.17 0.41 0.3 0.22 0.13 0.46 0.22 0.23 0.09 0.48 0.14 0.25 0.05 0.5 0.05 0.51-0.04 1.01-0.13 0.5-0.08 0.99-0.2 0.49-0.12 0.97-0.27 0.48-0.16 0.95-0.35l26.98-9.03q0.5-0.15 0.99-0.33 0.5-0.19 0.97-0.4 0.48-0.22 0.95-0.47 0.46-0.25 0.9-0.53 0.18-0.17 0.33-0.37 0.16-0.2 0.28-0.42 0.11-0.22 0.2-0.45 0.08-0.24 0.13-0.49 0.05-0.36 0.06-0.72 0.01-0.37-0.03-0.73-0.04-0.36-0.12-0.72-0.09-0.35-0.23-0.69l-0.44-1.33 1.12-0.38 7.01 20.98-1.12 0.38-0.43-1.33q-0.11-0.37-0.27-0.72-0.15-0.35-0.35-0.68-0.21-0.33-0.45-0.63-0.24-0.3-0.52-0.56-0.2-0.16-0.41-0.3-0.22-0.13-0.46-0.22-0.23-0.09-0.48-0.14-0.25-0.05-0.5-0.07-0.51 0.05-1.01 0.13-0.5 0.08-0.99 0.2-0.49 0.12-0.97 0.28-0.48 0.15-0.95 0.34l-26.96 9.04q-0.51 0.14-1 0.32-0.49 0.18-0.97 0.39-0.48 0.22-0.94 0.47-0.46 0.26-0.91 0.54-0.17 0.18-0.33 0.38-0.15 0.19-0.27 0.41-0.11 0.22-0.2 0.46-0.08 0.23-0.13 0.48-0.06 0.36-0.07 0.73-0.01 0.36 0.03 0.72 0.04 0.37 0.13 0.72 0.09 0.36 0.22 0.7z"/>
	<path class="s0" d="m154.5 715.12l-14 5.97-0.45-1.05q1.11-0.92 2.08-1.99 0.97-1.08 1.76-2.28 0.8-1.21 1.41-2.52 0.61-1.31 1.02-2.69 0.34-1.19 0.47-2.42 0.14-1.23 0.06-2.47-0.07-1.23-0.35-2.44-0.29-1.2-0.77-2.34-0.38-1-0.95-1.91-0.56-0.91-1.28-1.7-0.72-0.79-1.57-1.43-0.85-0.65-1.81-1.13-1.02-0.47-2.1-0.77-1.07-0.31-2.18-0.45-1.12-0.14-2.24-0.11-1.12 0.03-2.22 0.23-1.25 0.17-2.49 0.43-1.24 0.26-2.45 0.61-1.22 0.34-2.41 0.76-1.19 0.42-2.35 0.93-1.28 0.51-2.52 1.12-1.24 0.62-2.43 1.32-1.18 0.7-2.32 1.49-1.13 0.79-2.2 1.66-0.84 0.64-1.55 1.41-0.72 0.77-1.3 1.66-0.58 0.88-1 1.85-0.42 0.96-0.67 1.99-0.19 0.99-0.22 1.99-0.03 1.01 0.1 2 0.12 1 0.39 1.97 0.28 0.96 0.7 1.88 0.15 0.36 0.32 0.72 0.18 0.35 0.37 0.69 0.19 0.35 0.4 0.68 0.21 0.33 0.44 0.65 0.25 0.35 0.51 0.69 0.26 0.34 0.53 0.67 0.27 0.33 0.56 0.64 0.28 0.32 0.58 0.63l8.27-3.45q0.39-0.14 0.77-0.32 0.38-0.17 0.75-0.37 0.36-0.21 0.71-0.44 0.35-0.24 0.67-0.5 0.15-0.19 0.28-0.41 0.12-0.22 0.21-0.45 0.08-0.23 0.14-0.48 0.05-0.24 0.06-0.49 0.03-0.33 0.01-0.67-0.01-0.34-0.07-0.67-0.06-0.33-0.16-0.65-0.1-0.33-0.24-0.63l-0.44-1 1.09-0.47 8.03 18.89-1.07 0.45q-0.17-0.38-0.37-0.74-0.21-0.37-0.44-0.71-0.24-0.35-0.51-0.67-0.26-0.31-0.56-0.61-0.22-0.17-0.47-0.29-0.25-0.13-0.51-0.22-0.27-0.08-0.54-0.12-0.28-0.03-0.55-0.02-0.37 0.05-0.74 0.14-0.36 0.08-0.72 0.2-0.35 0.11-0.7 0.26-0.34 0.14-0.68 0.31l-8.27 3.45q-0.82-0.74-1.6-1.54-0.78-0.79-1.51-1.62-0.74-0.84-1.43-1.71-0.69-0.87-1.33-1.77-0.66-0.94-1.26-1.91-0.61-0.96-1.16-1.96-0.56-1-1.06-2.03-0.5-1.03-0.94-2.08-0.54-1.15-0.96-2.36-0.43-1.2-0.73-2.44-0.3-1.23-0.47-2.49-0.18-1.27-0.22-2.54-0.01-1.04 0.06-2.07 0.08-1.04 0.24-2.07 0.16-1.02 0.41-2.03 0.25-1.01 0.58-2 0.31-0.92 0.7-1.82 0.39-0.89 0.86-1.74 0.47-0.85 1.03-1.66 0.55-0.8 1.18-1.55 0.83-0.96 1.78-1.82 0.94-0.86 1.97-1.6 1.04-0.74 2.15-1.36 1.12-0.62 2.3-1.11 2.09-0.94 4.33-1.44 2.24-0.51 4.53-0.55 2.3-0.04 4.55 0.39 2.25 0.42 4.38 1.29 2.17 0.87 4.12 2.15 1.96 1.29 3.61 2.94 1.65 1.66 2.93 3.61 1.28 1.96 2.13 4.14 0.29 0.65 0.54 1.32 0.25 0.66 0.46 1.34 0.22 0.68 0.4 1.37 0.18 0.69 0.33 1.39 0.1 0.57 0.18 1.15 0.07 0.58 0.13 1.16 0.05 0.58 0.08 1.17 0.02 0.58 0.02 1.16-0.01 0.48 0.01 0.96 0.01 0.48 0.05 0.95 0.04 0.48 0.11 0.95 0.07 0.47 0.16 0.94 0.09 0.21 0.22 0.39 0.12 0.19 0.28 0.35 0.16 0.16 0.34 0.28 0.19 0.13 0.39 0.23 0.34 0.11 0.69 0.19 0.34 0.08 0.7 0.11 0.36 0.04 0.71 0.03 0.36-0.01 0.71-0.06z"/>
	<path class="s0" d="m144.04 745.36l-11.67 6.56q-0.48 0.22-0.93 0.48-0.46 0.25-0.89 0.55-0.44 0.29-0.85 0.62-0.41 0.32-0.79 0.68-0.14 0.21-0.25 0.44-0.11 0.23-0.19 0.48-0.07 0.25-0.1 0.5-0.04 0.26-0.03 0.51 0.01 0.37 0.06 0.73 0.06 0.36 0.16 0.71 0.11 0.35 0.26 0.69 0.15 0.33 0.35 0.64l0.69 1.22-1.03 0.57-10.81-19.24 1.03-0.58 0.69 1.22q0.17 0.35 0.39 0.66 0.21 0.32 0.47 0.6 0.26 0.29 0.55 0.53 0.29 0.25 0.61 0.46 0.22 0.12 0.46 0.21 0.24 0.08 0.49 0.13 0.25 0.04 0.5 0.04 0.25 0 0.5-0.04 0.49-0.14 0.97-0.32 0.47-0.18 0.93-0.4 0.46-0.22 0.9-0.47 0.44-0.25 0.86-0.53l24.8-13.92q0.47-0.23 0.93-0.49 0.45-0.26 0.89-0.55 0.43-0.29 0.84-0.62 0.41-0.32 0.8-0.67 0.15-0.21 0.26-0.44 0.12-0.23 0.19-0.47 0.08-0.25 0.11-0.5 0.03-0.25 0.02-0.51 0-0.37-0.06-0.73-0.06-0.36-0.16-0.71-0.11-0.35-0.26-0.68-0.15-0.33-0.34-0.64l-0.7-1.23 1.04-0.57 10.81 19.24-1.03 0.59-0.7-1.23q-0.17-0.34-0.38-0.66-0.22-0.32-0.47-0.6-0.26-0.28-0.55-0.53-0.29-0.25-0.62-0.46-0.22-0.12-0.46-0.21-0.24-0.09-0.49-0.14-0.25-0.04-0.51-0.05-0.25 0-0.5 0.04-0.49 0.15-0.97 0.33-0.47 0.18-0.93 0.4-0.46 0.21-0.9 0.46-0.44 0.26-0.87 0.54l-10.67 5.99 7.31 13 10.67-5.99q0.47-0.22 0.93-0.48 0.45-0.26 0.89-0.55 0.43-0.29 0.84-0.62 0.41-0.32 0.79-0.68 0.15-0.21 0.26-0.44 0.12-0.23 0.19-0.47 0.08-0.24 0.11-0.5 0.04-0.25 0.03-0.51-0.02-0.36-0.08-0.73-0.06-0.36-0.17-0.71-0.1-0.35-0.26-0.69-0.15-0.33-0.34-0.65l-0.67-1.19 1.02-0.58 10.79 19.22-1.02 0.58-0.67-1.21q-0.17-0.34-0.39-0.66-0.22-0.31-0.48-0.6-0.25-0.28-0.55-0.53-0.29-0.25-0.62-0.45-0.22-0.13-0.45-0.22-0.24-0.08-0.49-0.13-0.25-0.05-0.51-0.05-0.25 0-0.5 0.04-0.49 0.14-0.97 0.32-0.47 0.18-0.93 0.4-0.47 0.22-0.91 0.47-0.44 0.25-0.87 0.53l-24.78 13.92q-0.47 0.23-0.93 0.49-0.45 0.26-0.88 0.55-0.44 0.29-0.85 0.61-0.41 0.33-0.79 0.68-0.15 0.21-0.26 0.44-0.11 0.23-0.18 0.48-0.08 0.24-0.11 0.49-0.03 0.26-0.02 0.51 0.01 0.37 0.07 0.73 0.06 0.37 0.16 0.72 0.11 0.35 0.26 0.68 0.16 0.34 0.35 0.65l0.66 1.19-1.02 0.59-10.79-19.22 1.02-0.59 0.67 1.21q0.18 0.34 0.39 0.66 0.22 0.31 0.48 0.6 0.26 0.28 0.55 0.53 0.29 0.25 0.62 0.46 0.22 0.12 0.46 0.21 0.23 0.09 0.48 0.14 0.25 0.04 0.51 0.05 0.25 0 0.5-0.04 0.49-0.15 0.97-0.33 0.47-0.18 0.94-0.39 0.46-0.22 0.9-0.47 0.44-0.25 0.87-0.54l11.67-6.54z"/>
	<path class="s0" d="m201.8 793.93l-9.58 6.74-0.64-0.92q0.54-0.57 1.02-1.18 0.49-0.61 0.93-1.26 0.43-0.65 0.81-1.34 0.38-0.68 0.7-1.4 0.19-0.51 0.31-1.05 0.12-0.54 0.17-1.09 0.05-0.55 0.03-1.1-0.02-0.55-0.12-1.09-0.14-0.51-0.33-1-0.19-0.5-0.44-0.97-0.24-0.47-0.52-0.91-0.29-0.44-0.62-0.85l-1.73-2.58-27.29 19.16q-0.44 0.27-0.87 0.58-0.42 0.3-0.82 0.64-0.4 0.33-0.78 0.7-0.37 0.36-0.72 0.75-0.13 0.23-0.21 0.47-0.09 0.24-0.14 0.5-0.05 0.25-0.06 0.51 0 0.25 0.03 0.51 0.05 0.37 0.14 0.72 0.1 0.36 0.24 0.7 0.14 0.34 0.33 0.66 0.18 0.32 0.41 0.61l0.81 1.14-0.96 0.68-12.7-18.08 0.95-0.68 0.81 1.14q0.21 0.32 0.46 0.62 0.25 0.29 0.53 0.55 0.29 0.26 0.6 0.48 0.32 0.21 0.66 0.39 0.23 0.1 0.48 0.16 0.25 0.06 0.5 0.08 0.25 0.02 0.51 0 0.25-0.02 0.5-0.09 0.46-0.18 0.91-0.4 0.46-0.22 0.89-0.48 0.43-0.25 0.85-0.53 0.41-0.29 0.8-0.61l27.34-19.13-1.73-2.56q-0.42-0.71-0.96-1.34-0.54-0.63-1.2-1.15-0.65-0.51-1.38-0.89-0.74-0.38-1.54-0.62-1.02-0.17-2.06-0.16-1.04 0.01-2.06 0.2-1.02 0.18-1.99 0.53-0.98 0.35-1.88 0.86l-0.75-0.88 9.57-6.73z"/>
	<path class="s0" d="m215.15 840.47q0.62 0.98 1.13 2.02 0.5 1.04 0.9 2.13 0.39 1.09 0.66 2.22 0.27 1.12 0.42 2.27 0.07 1.08-0.12 2.14-0.18 1.06-0.6 2.06-0.42 0.99-1.06 1.87-0.63 0.87-1.45 1.58-0.85 0.79-1.85 1.37-1.01 0.58-2.12 0.91-1.11 0.34-2.27 0.41-1.16 0.07-2.31-0.12-6-0.88-12.08-7.51l-14.42-15.89 0.86-0.79q0.31 0.4 0.67 0.76 0.35 0.36 0.74 0.69 0.39 0.32 0.81 0.6 0.42 0.28 0.87 0.52 0.25 0.1 0.5 0.15 0.26 0.06 0.52 0.07 0.26 0.01 0.52-0.02 0.26-0.03 0.52-0.1 0.49-0.25 0.96-0.54 0.47-0.3 0.92-0.63 0.44-0.33 0.86-0.7 0.41-0.37 0.8-0.77l20.72-18.86q0.44-0.34 0.84-0.72 0.41-0.38 0.78-0.8 0.38-0.41 0.72-0.85 0.34-0.44 0.65-0.91 0.1-0.24 0.15-0.5 0.06-0.26 0.07-0.53 0.01-0.26-0.03-0.52-0.03-0.27-0.11-0.52-0.19-0.46-0.43-0.91-0.24-0.44-0.53-0.85-0.28-0.42-0.61-0.8-0.33-0.39-0.69-0.74l0.88-0.77 13.59 14.97q0.94 0.91 1.78 1.9 0.84 1 1.59 2.07 0.75 1.07 1.39 2.2 0.65 1.14 1.18 2.32 0.26 0.75 0.4 1.52 0.15 0.77 0.19 1.56 0.03 0.78-0.05 1.56-0.07 0.78-0.26 1.55-0.17 0.72-0.45 1.41-0.28 0.69-0.66 1.33-0.37 0.64-0.84 1.22-0.47 0.58-1.02 1.08-0.57 0.52-1.22 0.92-0.66 0.41-1.38 0.68-0.72 0.27-1.48 0.4-0.76 0.12-1.53 0.11-1.09-0.12-2.15-0.38-1.07-0.26-2.08-0.67-1.02-0.41-1.97-0.95-0.95-0.55-1.82-1.22zm-8.82-7.28l-10.26 9.32-1.21 1.04q-0.27 0.22-0.5 0.48-0.23 0.27-0.4 0.58-0.18 0.3-0.29 0.64-0.11 0.33-0.15 0.68 0 0.35 0.07 0.69 0.07 0.33 0.2 0.65 0.14 0.32 0.33 0.61 0.2 0.28 0.45 0.52 0.4 0.45 0.85 0.84 0.46 0.39 0.95 0.73 0.5 0.33 1.04 0.6 0.53 0.27 1.1 0.47 0.55 0.2 1.12 0.31 0.58 0.11 1.16 0.14 0.58 0.02 1.17-0.05 0.58-0.07 1.14-0.22 0.6-0.17 1.17-0.4 0.58-0.24 1.12-0.54 0.55-0.3 1.05-0.66 0.5-0.37 0.96-0.79 0.54-0.47 1-1 0.47-0.54 0.87-1.13 0.39-0.59 0.7-1.23 0.31-0.64 0.54-1.32 0.22-0.6 0.33-1.24 0.11-0.63 0.11-1.28 0-0.64-0.11-1.28-0.11-0.63-0.33-1.24-0.38-0.83-0.84-1.62-0.45-0.79-0.98-1.53-0.52-0.75-1.12-1.44-0.59-0.7-1.24-1.33zm1.85-1.73q0.53 0.65 1.12 1.23 0.6 0.59 1.25 1.11 0.65 0.52 1.36 0.98 0.7 0.45 1.45 0.82 0.5 0.22 1.04 0.35 0.53 0.14 1.07 0.2 0.55 0.05 1.1 0.03 0.55-0.02 1.09-0.13 1.17-0.33 2.24-0.92 1.07-0.59 1.97-1.41 0.9-0.83 1.58-1.84 0.68-1.01 1.12-2.15 0.16-0.51 0.24-1.04 0.08-0.53 0.08-1.06 0-0.54-0.08-1.07-0.08-0.53-0.24-1.04-0.33-0.77-0.73-1.51-0.4-0.73-0.87-1.43-0.47-0.69-1.01-1.33-0.54-0.64-1.14-1.22z"/>
	<path class="s0" d="m239.71 837.33l16.15 14.63-0.8 0.88-0.81-0.73q-0.29-0.31-0.62-0.59-0.33-0.28-0.69-0.51-0.36-0.24-0.75-0.44-0.38-0.19-0.79-0.34-0.24-0.06-0.49-0.07-0.25-0.02-0.5 0-0.25 0.03-0.49 0.09-0.24 0.07-0.47 0.17-0.49 0.33-0.95 0.7-0.46 0.37-0.89 0.77-0.43 0.39-0.84 0.82-0.4 0.43-0.77 0.89l-14.22 15.68q-0.69 0.68-1.33 1.41-0.63 0.74-1.2 1.53-0.57 0.78-1.07 1.62-0.5 0.83-0.92 1.71-0.15 0.51-0.23 1.04-0.08 0.52-0.08 1.06 0 0.53 0.08 1.06 0.08 0.52 0.23 1.03 0.19 0.62 0.47 1.21 0.28 0.58 0.64 1.12 0.36 0.54 0.79 1.03 0.43 0.48 0.93 0.89 0.55 0.54 1.18 0.98 0.63 0.45 1.31 0.8 0.69 0.35 1.41 0.59 0.73 0.24 1.49 0.38 0.71 0.11 1.43 0.12 0.72 0 1.43-0.1 0.71-0.1 1.4-0.3 0.69-0.21 1.33-0.52 1.06-0.62 2.06-1.33 0.99-0.71 1.92-1.51 0.93-0.8 1.78-1.68 0.85-0.88 1.62-1.83l11.83-13.06q0.37-0.37 0.71-0.77 0.34-0.4 0.63-0.84 0.3-0.43 0.55-0.89 0.25-0.47 0.46-0.95 0.09-0.28 0.13-0.56 0.05-0.29 0.05-0.58 0-0.29-0.05-0.58-0.04-0.28-0.13-0.56-0.21-0.47-0.47-0.9-0.26-0.44-0.57-0.84-0.31-0.41-0.67-0.77-0.35-0.37-0.75-0.69l0.8-0.88 10.83 9.81-0.8 0.87-0.64-0.59q-0.27-0.27-0.59-0.5-0.31-0.23-0.65-0.41-0.34-0.18-0.71-0.31-0.36-0.14-0.74-0.21-0.35-0.07-0.71-0.07-0.36 0-0.71 0.06-0.35 0.06-0.68 0.19-0.34 0.12-0.65 0.3-0.39 0.24-0.76 0.52-0.37 0.28-0.72 0.58-0.34 0.31-0.67 0.64-0.32 0.34-0.61 0.69l-11.02 12.09q-0.89 1.06-1.84 2.06-0.96 1-1.97 1.94-1.02 0.94-2.09 1.82-1.07 0.87-2.2 1.68-0.87 0.48-1.81 0.81-0.95 0.34-1.93 0.52-0.99 0.18-1.99 0.19-1 0.02-1.99-0.12-1.35-0.21-2.66-0.62-1.3-0.42-2.52-1.04-1.22-0.62-2.33-1.43-1.11-0.81-2.07-1.78-0.83-0.69-1.57-1.47-0.75-0.78-1.4-1.63-0.66-0.86-1.21-1.79-0.55-0.92-1-1.9-0.4-0.91-0.65-1.86-0.25-0.96-0.35-1.95-0.1-0.98-0.04-1.97 0.06-0.99 0.28-1.96 0.33-1.05 0.78-2.06 0.45-1.01 1.02-1.96 0.57-0.94 1.25-1.82 0.68-0.87 1.46-1.65l14.19-15.68q0.42-0.41 0.81-0.85 0.39-0.43 0.74-0.9 0.36-0.47 0.67-0.96 0.32-0.49 0.6-1 0.08-0.25 0.12-0.5 0.04-0.25 0.04-0.51 0-0.25-0.04-0.5-0.04-0.26-0.12-0.5-0.22-0.42-0.48-0.81-0.25-0.39-0.55-0.75-0.31-0.36-0.64-0.68-0.34-0.32-0.72-0.61z"/>
	<path class="s0" d="m296.28 883.37l-8.41 11.73-1.01-0.78q0.61-1.09 1.03-2.27 0.42-1.17 0.64-2.4 0.22-1.23 0.23-2.48 0.02-1.25-0.18-2.49-0.14-1.06-0.48-2.07-0.35-1.02-0.88-1.95-0.53-0.93-1.23-1.74-0.7-0.81-1.53-1.47-0.53-0.44-1.13-0.77-0.6-0.33-1.25-0.54-0.65-0.21-1.33-0.29-0.67-0.08-1.35-0.03-0.57 0.04-1.12 0.2-0.55 0.15-1.05 0.42-0.5 0.27-0.94 0.64-0.43 0.36-0.78 0.82-0.21 0.26-0.37 0.55-0.17 0.29-0.3 0.6-0.13 0.3-0.22 0.63-0.09 0.32-0.13 0.65-0.03 0.52-0.01 1.04 0.01 0.52 0.08 1.04 0.07 0.52 0.18 1.03 0.12 0.51 0.29 1 0.34 0.9 0.71 1.8 0.37 0.89 0.77 1.77 0.39 0.88 0.81 1.75 0.42 0.87 0.87 1.73 3.66 7.42 3.73 11.64 0.01 1.02-0.14 2.03-0.16 1.01-0.48 1.98-0.32 0.97-0.8 1.87-0.48 0.91-1.1 1.71-0.79 1.06-1.78 1.93-0.99 0.87-2.14 1.51-1.15 0.64-2.41 1.03-1.26 0.38-2.57 0.49-1.43 0.15-2.86 0.02-1.44-0.14-2.82-0.54-1.38-0.41-2.65-1.08-1.27-0.67-2.39-1.58-0.38-0.28-0.75-0.59-0.36-0.3-0.71-0.63-0.35-0.33-0.67-0.67-0.33-0.35-0.64-0.71-0.36-0.47-0.71-0.94-0.35-0.48-0.67-0.97-0.33-0.49-0.63-0.99-0.31-0.51-0.59-1.02-0.15-0.29-0.33-0.56-0.17-0.26-0.37-0.51-0.2-0.25-0.43-0.48-0.22-0.23-0.46-0.44-0.19-0.13-0.4-0.23-0.21-0.1-0.42-0.16-0.22-0.07-0.45-0.1-0.23-0.03-0.46-0.03-0.31 0-0.61 0.05-0.31 0.04-0.61 0.13-0.3 0.08-0.58 0.21-0.28 0.12-0.55 0.29l-0.91-0.7 9.82-13.03 0.92 0.69q-0.71 1.31-1.21 2.73-0.5 1.41-0.77 2.88-0.27 1.48-0.3 2.98-0.03 1.49 0.17 2.98 0.16 1.16 0.54 2.28 0.38 1.11 0.97 2.13 0.58 1.02 1.35 1.91 0.77 0.89 1.7 1.62 0.58 0.48 1.25 0.84 0.66 0.35 1.38 0.57 0.72 0.23 1.47 0.31 0.75 0.07 1.5 0.01 1.03-0.07 1.99-0.47 0.95-0.42 1.71-1.12 0.75-0.71 1.22-1.64 0.47-0.92 0.6-1.95 0.06-0.46 0.07-0.92 0.01-0.45-0.03-0.91-0.03-0.46-0.11-0.91-0.08-0.45-0.2-0.89-0.25-0.79-0.53-1.58-0.29-0.78-0.61-1.54-0.32-0.77-0.67-1.52-0.36-0.76-0.75-1.49-0.56-1.07-1.07-2.16-0.51-1.1-0.97-2.22-0.46-1.11-0.86-2.25-0.4-1.14-0.74-2.3-0.2-0.73-0.31-1.47-0.12-0.75-0.17-1.5-0.04-0.75-0.01-1.5 0.03-0.76 0.14-1.5 0.11-0.71 0.31-1.39 0.2-0.69 0.49-1.34 0.28-0.66 0.65-1.27 0.36-0.62 0.8-1.18 0.72-1 1.64-1.82 0.91-0.83 1.98-1.45 1.07-0.62 2.24-1.01 1.17-0.39 2.39-0.52 1.28-0.17 2.57-0.08 1.29 0.1 2.53 0.45 1.25 0.35 2.4 0.94 1.15 0.59 2.15 1.4 0.41 0.3 0.79 0.63 0.38 0.33 0.74 0.68 0.36 0.36 0.69 0.73 0.34 0.38 0.65 0.77 0.29 0.39 0.56 0.78 0.27 0.4 0.52 0.81 0.25 0.42 0.48 0.84 0.23 0.42 0.44 0.85 0.16 0.36 0.34 0.71 0.19 0.34 0.4 0.67 0.22 0.33 0.47 0.63 0.25 0.3 0.52 0.58 0.13 0.12 0.29 0.2 0.16 0.08 0.33 0.13 0.17 0.05 0.34 0.06 0.18 0.01 0.35-0.02 0.31-0.12 0.6-0.27 0.3-0.15 0.57-0.33 0.28-0.18 0.53-0.39 0.25-0.21 0.48-0.45z"/>
	<path class="s0" d="m295.9 934.69l-0.63 0.99-18.5-12.09 0.66-1 1.17 0.78q0.31 0.22 0.65 0.4 0.34 0.18 0.7 0.31 0.36 0.13 0.73 0.22 0.37 0.08 0.75 0.12 0.26 0.01 0.51-0.03 0.25-0.03 0.49-0.11 0.24-0.08 0.46-0.19 0.22-0.12 0.43-0.28 0.36-0.34 0.7-0.72 0.34-0.38 0.65-0.77 0.32-0.4 0.6-0.82 0.28-0.42 0.53-0.86l15.54-23.82q0.31-0.42 0.6-0.86 0.28-0.44 0.53-0.9 0.24-0.46 0.46-0.93 0.22-0.48 0.4-0.97 0.03-0.25 0.03-0.51-0.01-0.25-0.06-0.5-0.04-0.25-0.13-0.49-0.08-0.24-0.2-0.47-0.18-0.31-0.4-0.61-0.22-0.29-0.48-0.55-0.25-0.26-0.54-0.48-0.29-0.23-0.6-0.41l-1.18-0.78 0.64-0.98 18.48 12.09-0.64 0.98-1.17-0.78q-0.32-0.22-0.65-0.4-0.34-0.18-0.7-0.31-0.36-0.13-0.73-0.22-0.37-0.09-0.76-0.12-0.25-0.01-0.5 0.03-0.26 0.03-0.5 0.11-0.25 0.07-0.48 0.18-0.22 0.12-0.43 0.27-0.37 0.34-0.71 0.72-0.34 0.37-0.65 0.77-0.31 0.4-0.58 0.82-0.28 0.42-0.53 0.86l-15.54 23.82q-0.32 0.42-0.6 0.86-0.28 0.44-0.52 0.9-0.25 0.45-0.46 0.93-0.22 0.48-0.39 0.97-0.03 0.25-0.03 0.51 0.01 0.26 0.06 0.51 0.05 0.25 0.14 0.5 0.08 0.24 0.21 0.46 0.18 0.32 0.4 0.61 0.22 0.3 0.47 0.56 0.26 0.26 0.54 0.48 0.29 0.23 0.61 0.41z"/>
	<path class="s0" d="m332.77 907.6l5.5 33.5 8.87-16.34q0.39-0.56 0.69-1.18 0.3-0.63 0.49-1.28 0.2-0.66 0.29-1.35 0.1-0.68 0.09-1.37-0.19-0.66-0.52-1.27-0.33-0.61-0.8-1.12-0.46-0.52-1.03-0.91-0.57-0.4-1.21-0.65l0.57-1.04 12.26 6.67-0.57 1.03q-0.42-0.19-0.86-0.35-0.44-0.15-0.89-0.27-0.46-0.11-0.92-0.19-0.46-0.07-0.92-0.1-0.3 0.02-0.58 0.08-0.29 0.07-0.56 0.19-0.27 0.11-0.52 0.27-0.25 0.16-0.47 0.36-0.38 0.39-0.74 0.8-0.35 0.42-0.67 0.87-0.31 0.45-0.59 0.92-0.28 0.47-0.52 0.97l-17.18 31.61-0.93-0.51-7.89-45.25-13.13 24.18q-0.4 0.55-0.67 1.18-0.26 0.63-0.39 1.3-0.12 0.67-0.09 1.36 0.02 0.68 0.2 1.34 0.2 0.47 0.48 0.91 0.28 0.43 0.63 0.81 0.35 0.38 0.76 0.69 0.4 0.32 0.86 0.56l0.88 0.48-0.57 1.04-13.14-7.17 0.55-1.03q0.54 0.37 1.14 0.62 0.6 0.26 1.24 0.39 0.64 0.14 1.3 0.14 0.65 0.01 1.29-0.12 0.59-0.27 1.11-0.65 0.52-0.37 0.96-0.84 0.44-0.46 0.79-1 0.35-0.54 0.6-1.13l14.57-26.81-0.24-1.43q-0.04-0.41-0.13-0.81-0.09-0.41-0.21-0.8-0.13-0.4-0.29-0.77-0.17-0.38-0.37-0.74-0.23-0.31-0.49-0.58-0.26-0.28-0.55-0.52-0.29-0.25-0.61-0.46-0.31-0.22-0.65-0.4l0.56-1.03z"/>
	<path class="s0" d="m372.98 930.27l-6.81 16.24 0.78 0.32q0.74 0.39 1.55 0.58 0.82 0.19 1.65 0.17 0.84-0.01 1.64-0.24 0.81-0.23 1.53-0.64 0.81-0.6 1.54-1.29 0.73-0.69 1.37-1.46 0.64-0.78 1.18-1.63 0.54-0.85 0.97-1.75l1.09 0.46-8.7 20.85-1.09-0.45q0.25-0.75 0.43-1.52 0.18-0.76 0.29-1.54 0.11-0.78 0.15-1.57 0.04-0.79 0.01-1.57 0-0.54-0.09-1.07-0.09-0.53-0.26-1.04-0.18-0.51-0.43-0.99-0.25-0.48-0.57-0.91-0.41-0.42-0.86-0.79-0.46-0.37-0.95-0.69-0.5-0.32-1.03-0.58-0.52-0.26-1.08-0.46l-4.71 11.22q-0.24 0.5-0.45 1.01-0.21 0.5-0.39 1.02-0.18 0.52-0.32 1.05-0.15 0.53-0.26 1.07-0.01 0.22 0.02 0.44 0.04 0.21 0.1 0.42 0.07 0.21 0.17 0.41 0.1 0.19 0.23 0.37 0.22 0.25 0.48 0.47 0.25 0.22 0.53 0.41 0.28 0.18 0.58 0.33 0.3 0.15 0.62 0.26l2.33 0.98q1.14 0.55 2.35 0.89 1.22 0.35 2.47 0.49 1.26 0.13 2.52 0.06 1.26-0.08 2.49-0.37 1.21-0.38 2.34-0.96 1.13-0.57 2.15-1.32 1.02-0.75 1.91-1.66 0.88-0.91 1.61-1.95l1.07 0.44-7.06 11.95-33.66-14.11 0.47-1.09 1.29 0.53q0.35 0.17 0.72 0.29 0.36 0.11 0.74 0.18 0.38 0.07 0.76 0.09 0.39 0.01 0.77-0.02 0.25-0.04 0.49-0.12 0.23-0.08 0.45-0.2 0.23-0.11 0.42-0.27 0.2-0.16 0.37-0.34 0.3-0.41 0.57-0.84 0.27-0.43 0.5-0.88 0.24-0.45 0.44-0.91 0.2-0.47 0.37-0.95l10.98-26.23q0.19-0.42 0.37-0.84 0.17-0.43 0.33-0.86 0.15-0.44 0.3-0.87 0.14-0.44 0.26-0.88 0.04-0.27 0.03-0.53-0.01-0.27-0.06-0.53-0.05-0.26-0.14-0.5-0.09-0.25-0.22-0.48-0.24-0.36-0.53-0.68-0.29-0.31-0.62-0.58-0.34-0.26-0.72-0.47-0.37-0.2-0.78-0.34l-1.29-0.56 0.45-1.08 32.55 13.79-4.94 11.78-1.09-0.45q0.24-0.87 0.38-1.77 0.14-0.9 0.17-1.8 0.03-0.91-0.04-1.82-0.07-0.9-0.25-1.79-0.21-0.67-0.51-1.3-0.31-0.63-0.71-1.21-0.39-0.58-0.87-1.1-0.47-0.51-1.02-0.95-0.67-0.48-1.37-0.91-0.7-0.43-1.43-0.81-0.73-0.38-1.48-0.72-0.75-0.33-1.52-0.62z"/>
	<path class="s0" d="m424.72 945.19l-4.05 13.82-1.2-0.38q0.21-1.23 0.21-2.48 0.01-1.25-0.2-2.48-0.2-1.23-0.6-2.42-0.41-1.18-1-2.27-0.49-0.96-1.15-1.8-0.65-0.85-1.46-1.55-0.81-0.7-1.74-1.23-0.93-0.54-1.94-0.88-0.64-0.24-1.31-0.36-0.68-0.11-1.36-0.1-0.68 0.02-1.35 0.16-0.67 0.15-1.3 0.42-0.52 0.22-0.99 0.55-0.46 0.34-0.85 0.76-0.38 0.42-0.67 0.91-0.28 0.5-0.46 1.04-0.11 0.32-0.17 0.65-0.07 0.32-0.09 0.66-0.02 0.33 0.01 0.66 0.03 0.33 0.1 0.66 0.14 0.5 0.33 0.99 0.18 0.48 0.42 0.95 0.23 0.46 0.51 0.9 0.28 0.44 0.6 0.85 0.62 0.74 1.26 1.47 0.64 0.72 1.31 1.42 0.66 0.7 1.34 1.38 0.69 0.69 1.39 1.35 5.94 5.78 7.39 9.72 0.36 0.96 0.55 1.96 0.19 1.01 0.21 2.03 0.01 1.03-0.14 2.04-0.16 1.01-0.48 1.98-0.39 1.26-1.03 2.41-0.65 1.15-1.52 2.14-0.87 0.99-1.93 1.77-1.07 0.78-2.27 1.31-1.3 0.62-2.69 0.97-1.4 0.35-2.83 0.42-1.44 0.07-2.86-0.14-1.42-0.21-2.78-0.69-0.45-0.14-0.89-0.31-0.45-0.17-0.88-0.36-0.43-0.19-0.85-0.41-0.42-0.22-0.83-0.46-0.5-0.32-0.99-0.65-0.49-0.34-0.96-0.7-0.48-0.36-0.93-0.74-0.46-0.38-0.9-0.78-0.24-0.22-0.49-0.41-0.25-0.2-0.52-0.37-0.28-0.17-0.56-0.31-0.29-0.14-0.59-0.25-0.22-0.08-0.45-0.11-0.23-0.04-0.47-0.04-0.23 0-0.46 0.04-0.23 0.03-0.45 0.11-0.29 0.1-0.56 0.25-0.27 0.14-0.52 0.32-0.25 0.18-0.48 0.39-0.22 0.21-0.41 0.45l-1.11-0.36 4.94-15.54 1.11 0.34q-0.24 1.48-0.24 2.98 0 1.5 0.23 2.97 0.24 1.48 0.71 2.9 0.46 1.43 1.15 2.76 0.53 1.05 1.25 1.97 0.72 0.93 1.61 1.7 0.89 0.77 1.91 1.36 1.02 0.58 2.13 0.96 0.71 0.27 1.46 0.39 0.75 0.13 1.51 0.11 0.75-0.02 1.49-0.19 0.74-0.17 1.43-0.48 0.59-0.26 1.12-0.63 0.52-0.37 0.95-0.85 0.44-0.48 0.76-1.03 0.32-0.56 0.52-1.17 0.11-0.37 0.18-0.76 0.06-0.38 0.08-0.77 0.02-0.39-0.01-0.78-0.03-0.38-0.11-0.76-0.1-0.45-0.25-0.88-0.14-0.44-0.33-0.86-0.18-0.41-0.41-0.81-0.23-0.4-0.49-0.77-0.5-0.67-1.02-1.31-0.53-0.65-1.08-1.27-0.56-0.61-1.14-1.21-0.59-0.59-1.2-1.15-0.89-0.82-1.73-1.68-0.84-0.87-1.64-1.77-0.8-0.91-1.56-1.85-0.75-0.94-1.46-1.92-0.43-0.62-0.79-1.28-0.36-0.67-0.65-1.36-0.29-0.7-0.51-1.42-0.22-0.72-0.37-1.46-0.13-0.71-0.17-1.43-0.04-0.73 0.01-1.45 0.04-0.72 0.18-1.43 0.14-0.71 0.36-1.39 0.36-1.18 0.95-2.26 0.59-1.09 1.39-2.02 0.8-0.94 1.78-1.69 0.97-0.75 2.08-1.29 1.16-0.58 2.4-0.92 1.25-0.34 2.54-0.42 1.29-0.08 2.57 0.1 1.28 0.17 2.49 0.61 0.48 0.15 0.95 0.34 0.47 0.19 0.93 0.4 0.46 0.22 0.9 0.46 0.44 0.25 0.87 0.52 0.4 0.27 0.78 0.56 0.39 0.28 0.76 0.59 0.37 0.3 0.73 0.63 0.36 0.32 0.7 0.66 0.26 0.29 0.55 0.55 0.29 0.26 0.6 0.5 0.32 0.23 0.65 0.44 0.33 0.2 0.68 0.37 0.17 0.07 0.34 0.1 0.18 0.02 0.36 0.01 0.17-0.01 0.34-0.06 0.17-0.05 0.33-0.13 0.25-0.22 0.47-0.46 0.23-0.24 0.43-0.5 0.2-0.27 0.36-0.55 0.17-0.28 0.31-0.58z"/>
	<path class="s0" d="m457.85 953.21l-2.88 14.11-1.24-0.28q0.11-1.25 0.01-2.49-0.1-1.25-0.4-2.46-0.31-1.21-0.81-2.36-0.5-1.14-1.19-2.19-0.56-0.91-1.28-1.7-0.72-0.78-1.58-1.42-0.87-0.63-1.83-1.08-0.97-0.46-2.01-0.72-0.66-0.19-1.34-0.24-0.68-0.06-1.36 0.01-0.68 0.08-1.34 0.28-0.65 0.2-1.26 0.52-0.5 0.27-0.93 0.63-0.43 0.36-0.78 0.81-0.35 0.45-0.6 0.96-0.25 0.5-0.38 1.05-0.09 0.32-0.13 0.65-0.05 0.33-0.05 0.67 0 0.33 0.05 0.66 0.04 0.33 0.13 0.65 0.18 0.49 0.41 0.96 0.22 0.47 0.5 0.91 0.27 0.45 0.58 0.87 0.31 0.41 0.67 0.8 0.68 0.69 1.38 1.36 0.7 0.66 1.42 1.31 0.72 0.65 1.45 1.28 0.74 0.62 1.5 1.23 1.24 0.91 2.38 1.95 1.14 1.04 2.17 2.18 1.02 1.15 1.93 2.39 0.91 1.25 1.69 2.58 0.43 0.93 0.69 1.91 0.27 0.99 0.37 2 0.1 1.02 0.03 2.04-0.07 1.02-0.32 2.01-0.28 1.29-0.83 2.49-0.55 1.2-1.34 2.25-0.78 1.06-1.78 1.92-0.99 0.87-2.14 1.51-1.25 0.72-2.61 1.18-1.36 0.46-2.79 0.65-1.43 0.19-2.86 0.1-1.44-0.09-2.83-0.46-0.46-0.11-0.92-0.24-0.45-0.13-0.9-0.29-0.45-0.15-0.89-0.33-0.44-0.18-0.86-0.39-0.53-0.27-1.04-0.56-0.51-0.3-1.01-0.61-0.5-0.32-0.99-0.65-0.48-0.34-0.95-0.7-0.25-0.2-0.52-0.37-0.27-0.18-0.56-0.32-0.28-0.15-0.58-0.27-0.3-0.12-0.61-0.21-0.23-0.04-0.46-0.05-0.23-0.01-0.46 0.02-0.23 0.03-0.46 0.1-0.22 0.07-0.43 0.17-0.28 0.13-0.54 0.29-0.26 0.16-0.5 0.36-0.23 0.2-0.44 0.42-0.21 0.23-0.38 0.48l-1.13-0.24 3.66-15.92 1.13 0.26q-0.12 1.49 0 2.99 0.13 1.49 0.48 2.95 0.36 1.46 0.94 2.84 0.58 1.38 1.37 2.65 0.63 1 1.44 1.86 0.81 0.87 1.77 1.56 0.96 0.69 2.03 1.18 1.08 0.49 2.22 0.77 0.73 0.21 1.49 0.27 0.75 0.06 1.51-0.03 0.75-0.08 1.47-0.31 0.72-0.22 1.39-0.58 0.57-0.31 1.06-0.73 0.48-0.41 0.88-0.93 0.39-0.51 0.66-1.09 0.27-0.58 0.42-1.21 0.09-0.38 0.12-0.76 0.04-0.39 0.03-0.77-0.01-0.39-0.08-0.77-0.06-0.38-0.17-0.76-0.14-0.43-0.31-0.85-0.18-0.43-0.4-0.83-0.22-0.4-0.47-0.78-0.26-0.38-0.55-0.73-0.55-0.63-1.13-1.22-0.57-0.6-1.18-1.17-0.61-0.57-1.24-1.12-0.63-0.54-1.29-1.05-0.94-0.75-1.84-1.54-0.9-0.79-1.77-1.63-0.86-0.83-1.69-1.71-0.82-0.87-1.6-1.79-0.48-0.58-0.89-1.21-0.41-0.64-0.76-1.31-0.35-0.67-0.63-1.37-0.28-0.7-0.49-1.42-0.17-0.7-0.26-1.42-0.09-0.71-0.09-1.43 0-0.72 0.09-1.44 0.09-0.71 0.26-1.41 0.26-1.21 0.76-2.34 0.49-1.13 1.21-2.13 0.72-1 1.64-1.83 0.91-0.83 1.97-1.46 1.1-0.67 2.32-1.11 1.21-0.44 2.49-0.63 1.28-0.18 2.57-0.11 1.29 0.07 2.53 0.4 0.49 0.11 0.98 0.26 0.48 0.14 0.95 0.31 0.47 0.17 0.93 0.38 0.46 0.2 0.91 0.43 0.42 0.24 0.83 0.49 0.41 0.25 0.8 0.52 0.4 0.28 0.78 0.57 0.38 0.29 0.75 0.6 0.28 0.28 0.59 0.53 0.31 0.25 0.64 0.47 0.34 0.21 0.69 0.4 0.35 0.18 0.72 0.33 0.17 0.04 0.35 0.05 0.17 0.01 0.35-0.02 0.17-0.02 0.33-0.09 0.17-0.06 0.32-0.15 0.23-0.23 0.44-0.49 0.2-0.25 0.38-0.53 0.17-0.28 0.32-0.57 0.15-0.3 0.26-0.6z"/>
	<path class="s0" d="m538.28 963.22l-0.11 1.18q-0.26-0.01-0.53 0.02-0.26 0.03-0.52 0.09-0.26 0.07-0.5 0.16-0.25 0.1-0.48 0.23-0.24 0.17-0.46 0.36-0.22 0.2-0.42 0.41-0.2 0.22-0.37 0.46-0.17 0.24-0.31 0.49-0.21 0.37-2.35 4.77l-15.95 34.54h-1.21l-8.26-28.6-13.66 26.89-1.14-0.09-11.1-36.26q-0.23-0.86-0.5-1.7-0.27-0.85-0.58-1.68-0.3-0.83-0.65-1.65-0.34-0.82-0.72-1.62-0.25-0.32-0.55-0.59-0.31-0.26-0.66-0.46-0.35-0.19-0.74-0.31-0.38-0.12-0.78-0.16l0.1-1.17 18.24 1.41v1.18q-0.38-0.06-0.77-0.06-0.38 0-0.76 0.06-0.38 0.06-0.75 0.18-0.36 0.11-0.71 0.28-0.18 0.13-0.33 0.29-0.15 0.16-0.26 0.36-0.11 0.19-0.18 0.4-0.06 0.22-0.08 0.44 0.05 0.66 0.15 1.32 0.09 0.66 0.23 1.31 0.14 0.65 0.33 1.29 0.19 0.63 0.42 1.26l6.63 21.55 7.87-15.82-1.38-4.71q-0.18-0.67-0.38-1.32-0.2-0.66-0.43-1.31-0.22-0.65-0.47-1.29-0.26-0.63-0.53-1.26-0.14-0.29-0.32-0.56-0.17-0.27-0.38-0.52-0.21-0.24-0.44-0.46-0.24-0.21-0.5-0.4-0.34-0.18-0.69-0.32-0.36-0.14-0.73-0.24-0.36-0.09-0.74-0.14-0.38-0.05-0.76-0.06l0.09-1.17 20.39 1.57v1.17q-0.39-0.03-0.78-0.05-0.39-0.01-0.78 0.01-0.39 0.01-0.78 0.06-0.38 0.04-0.77 0.1-0.31 0.08-0.59 0.25-0.28 0.17-0.49 0.41-0.21 0.25-0.33 0.55-0.12 0.3-0.14 0.63 0.07 0.58 0.17 1.16 0.1 0.58 0.23 1.16 0.14 0.58 0.3 1.14 0.16 0.57 0.35 1.13l6.08 21 8.31-17.94q0.23-0.47 0.44-0.94 0.22-0.47 0.42-0.94 0.21-0.48 0.39-0.96 0.19-0.48 0.37-0.96 0.08-0.24 0.14-0.47 0.07-0.24 0.12-0.48 0.05-0.24 0.09-0.48 0.04-0.25 0.06-0.49 0.04-0.29 0.01-0.58-0.04-0.29-0.13-0.56-0.09-0.28-0.25-0.53-0.15-0.25-0.35-0.45-0.35-0.26-0.74-0.46-0.39-0.2-0.8-0.33-0.41-0.14-0.84-0.21-0.43-0.07-0.87-0.08v-1.17z"/>
	<path class="s0" d="m561.42 1003.75v1.18l-22.06 0.48v-1.17h1.4q0.39 0.01 0.77-0.03 0.39-0.04 0.76-0.13 0.37-0.1 0.73-0.24 0.36-0.14 0.7-0.33 0.21-0.13 0.4-0.3 0.18-0.17 0.34-0.37 0.15-0.2 0.27-0.42 0.12-0.22 0.2-0.46 0.1-0.5 0.17-1 0.06-0.5 0.09-1.01 0.03-0.5 0.03-1.01-0.01-0.5-0.05-1.01l-0.62-28.42q0.01-0.52-0.01-1.05-0.02-0.52-0.07-1.04-0.05-0.52-0.14-1.03-0.09-0.52-0.22-1.03-0.11-0.22-0.26-0.43-0.15-0.21-0.33-0.39-0.18-0.18-0.39-0.33-0.2-0.15-0.43-0.26-0.33-0.16-0.68-0.28-0.34-0.12-0.7-0.19-0.36-0.07-0.72-0.09-0.37-0.02-0.73 0.01h-1.42v-1.18l22.07-0.48v1.17h-1.4q-0.38-0.01-0.76 0.03-0.39 0.04-0.76 0.13-0.37 0.09-0.73 0.23-0.35 0.15-0.68 0.34-0.22 0.13-0.41 0.3-0.19 0.17-0.35 0.37-0.16 0.2-0.28 0.42-0.12 0.22-0.21 0.46-0.11 0.5-0.18 1-0.07 0.5-0.1 1-0.04 0.51-0.03 1.01 0.01 0.51 0.05 1.02l0.64 28.44q-0.02 0.52 0 1.04 0.02 0.52 0.08 1.04 0.05 0.52 0.15 1.03 0.09 0.51 0.22 1.01 0.12 0.23 0.27 0.44 0.15 0.21 0.33 0.39 0.19 0.18 0.4 0.33 0.2 0.15 0.43 0.26 0.33 0.16 0.68 0.28 0.34 0.12 0.7 0.19 0.36 0.07 0.73 0.09 0.36 0.02 0.73-0.01z"/>
	<path class="s0" d="m600.79 958.13l1.16 11.64-1.12 0.1q-0.23-0.75-0.52-1.47-0.29-0.73-0.63-1.42-0.35-0.7-0.75-1.37-0.41-0.67-0.87-1.3-0.36-0.42-0.77-0.79-0.41-0.37-0.86-0.68-0.46-0.32-0.95-0.57-0.49-0.26-1.01-0.45-0.51-0.12-1.03-0.19-0.53-0.07-1.05-0.09-0.53-0.02-1.05 0.01-0.53 0.04-1.05 0.12l-3.12 0.31 3.28 33.17q0.02 0.53 0.08 1.05 0.05 0.52 0.15 1.03 0.1 0.51 0.24 1.02 0.13 0.5 0.3 1 0.14 0.22 0.3 0.41 0.17 0.2 0.36 0.36 0.19 0.17 0.41 0.31 0.22 0.13 0.45 0.23 0.35 0.13 0.71 0.22 0.36 0.09 0.72 0.13 0.37 0.04 0.74 0.04 0.37-0.01 0.73-0.06l1.4-0.14 0.12 1.17-22 2.18-0.12-1.18 1.4-0.13q0.39-0.02 0.76-0.09 0.38-0.07 0.75-0.19 0.36-0.13 0.71-0.29 0.35-0.17 0.67-0.38 0.21-0.16 0.38-0.35 0.18-0.2 0.32-0.42 0.14-0.22 0.24-0.46 0.1-0.24 0.16-0.5 0.08-0.5 0.12-1 0.04-0.51 0.04-1.01 0-0.51-0.04-1.01-0.04-0.51-0.12-1l-3.28-33.18-3.04 0.3q-0.83 0-1.65 0.17-0.81 0.16-1.58 0.48-0.77 0.31-1.47 0.77-0.69 0.45-1.29 1.03-0.66 0.82-1.17 1.74-0.52 0.92-0.86 1.92-0.35 0.99-0.53 2.03-0.17 1.04-0.17 2.1h-1.21l-1.16-11.64z"/>
	<path class="s0" d="m623.12 976.76l2.71 13.11q0.07 0.52 0.19 1.03 0.11 0.51 0.26 1.01 0.15 0.5 0.34 0.99 0.19 0.49 0.42 0.96 0.16 0.2 0.36 0.38 0.19 0.18 0.41 0.32 0.22 0.14 0.46 0.25 0.24 0.1 0.5 0.17 0.35 0.1 0.71 0.14 0.36 0.05 0.73 0.05 0.36 0 0.73-0.05 0.36-0.04 0.71-0.14l1.37-0.29 0.24 1.15-21.61 4.49-0.24-1.15 1.38-0.3q0.38-0.06 0.75-0.16 0.36-0.11 0.71-0.27 0.35-0.16 0.67-0.36 0.33-0.21 0.62-0.45 0.18-0.17 0.34-0.37 0.15-0.19 0.26-0.41 0.12-0.23 0.2-0.46 0.08-0.24 0.11-0.49 0.02-0.5-0.01-1-0.02-0.51-0.08-1.01-0.06-0.5-0.16-0.99-0.1-0.5-0.23-0.99l-5.78-27.85q-0.08-0.52-0.19-1.03-0.11-0.51-0.26-1.01-0.14-0.5-0.33-0.99-0.18-0.49-0.4-0.96-0.16-0.21-0.35-0.39-0.2-0.18-0.42-0.32-0.22-0.14-0.46-0.25-0.24-0.1-0.5-0.16-0.35-0.1-0.71-0.15-0.36-0.04-0.73-0.04-0.36 0-0.72 0.04-0.37 0.05-0.72 0.15l-1.36 0.29-0.25-1.16 21.61-4.49 0.24 1.16-1.36 0.29q-0.38 0.06-0.75 0.17-0.37 0.11-0.72 0.27-0.35 0.15-0.68 0.36-0.32 0.2-0.62 0.45-0.18 0.17-0.33 0.37-0.15 0.2-0.27 0.42-0.12 0.22-0.2 0.45-0.09 0.24-0.13 0.48-0.02 0.51 0 1.02 0.03 0.5 0.09 1.01 0.06 0.5 0.16 1 0.1 0.49 0.23 0.98l2.49 11.99 14.59-3.04-2.48-11.99q-0.08-0.51-0.19-1.02-0.12-0.51-0.26-1.01-0.15-0.5-0.33-0.99-0.18-0.49-0.4-0.97-0.16-0.2-0.36-0.38-0.19-0.18-0.41-0.32-0.22-0.14-0.46-0.25-0.24-0.1-0.5-0.17-0.35-0.1-0.71-0.14-0.37-0.05-0.74-0.05-0.36 0-0.73 0.05-0.36 0.04-0.72 0.14l-1.33 0.28-0.24-1.16 21.59-4.47 0.22 1.14-1.33 0.29q-0.38 0.06-0.74 0.17-0.37 0.1-0.72 0.26-0.35 0.16-0.68 0.36-0.32 0.21-0.62 0.45-0.18 0.17-0.33 0.37-0.16 0.2-0.28 0.42-0.11 0.22-0.2 0.46-0.08 0.23-0.12 0.48-0.02 0.51 0 1.01 0.02 0.51 0.08 1.01 0.06 0.5 0.15 1 0.1 0.5 0.23 0.99l5.79 27.83q0.08 0.52 0.19 1.03 0.11 0.51 0.26 1.01 0.15 0.5 0.33 0.99 0.18 0.49 0.39 0.96 0.17 0.21 0.36 0.39 0.19 0.18 0.41 0.33 0.22 0.14 0.46 0.25 0.25 0.11 0.5 0.17 0.36 0.1 0.72 0.14 0.36 0.05 0.73 0.05 0.37 0 0.73-0.05 0.37-0.04 0.72-0.14l1.35-0.29 0.22 1.16-21.57 4.49-0.24-1.16 1.35-0.28q0.38-0.06 0.74-0.17 0.37-0.11 0.72-0.27 0.35-0.16 0.67-0.36 0.32-0.21 0.61-0.46 0.19-0.17 0.35-0.36 0.15-0.2 0.28-0.42 0.12-0.22 0.2-0.46 0.08-0.24 0.12-0.48 0.02-0.51-0.01-1.02-0.02-0.5-0.08-1-0.06-0.51-0.16-1-0.1-0.5-0.23-0.99l-2.73-13.11z"/>
	<path class="s0" d="m687.17 960.62l4.18 11.36q0.15 0.54 0.35 1.06 0.2 0.52 0.44 1.02 0.24 0.51 0.52 0.99 0.28 0.48 0.61 0.93 0.19 0.19 0.41 0.33 0.21 0.15 0.46 0.26 0.24 0.11 0.49 0.17 0.26 0.07 0.52 0.09 0.5 0 1-0.06 0.5-0.05 1-0.16 0.49-0.11 0.97-0.26 0.47-0.16 0.93-0.37l0.4 1.11-20.27 7.44-0.42-1.1q0.48-0.15 0.93-0.34 0.46-0.19 0.9-0.43 0.43-0.24 0.84-0.52 0.41-0.29 0.79-0.61 0.18-0.19 0.32-0.41 0.15-0.22 0.26-0.45 0.12-0.24 0.19-0.49 0.07-0.26 0.11-0.52-0.06-0.55-0.16-1.09-0.1-0.55-0.24-1.08-0.14-0.54-0.32-1.06-0.18-0.53-0.41-1.03l-9.67-26.34q-0.16-0.53-0.36-1.05-0.2-0.52-0.44-1.03-0.24-0.5-0.52-0.98-0.28-0.48-0.59-0.94-0.19-0.19-0.41-0.33-0.22-0.15-0.46-0.26-0.24-0.11-0.5-0.17-0.25-0.07-0.52-0.09-0.5 0-1 0.06-0.5 0.05-0.99 0.16-0.49 0.11-0.97 0.26-0.48 0.16-0.94 0.37l-0.4-1.11 18.5-6.77q1.3-0.54 2.64-0.99 1.34-0.45 2.71-0.8 1.37-0.36 2.76-0.62 1.38-0.27 2.79-0.44 0.89-0.06 1.78 0.02 0.89 0.08 1.76 0.3 0.86 0.22 1.68 0.57 0.82 0.36 1.58 0.84 0.77 0.49 1.46 1.11 0.68 0.61 1.25 1.33 0.57 0.72 1.01 1.53 0.44 0.81 0.74 1.68 0.42 1.03 0.6 2.14 0.19 1.1 0.13 2.22-0.05 1.12-0.35 2.2-0.29 1.08-0.82 2.07-0.41 0.74-0.91 1.42-0.51 0.68-1.09 1.29-0.58 0.62-1.24 1.15-0.65 0.54-1.37 0.99l14.58 10.24q0.45 0.35 0.92 0.67 0.47 0.32 0.95 0.61 0.48 0.29 0.98 0.56 0.5 0.27 1.02 0.51 0.38 0.12 0.78 0.19 0.39 0.06 0.8 0.06 0.4 0 0.8-0.06 0.39-0.07 0.78-0.19l0.39 1.11-12.48 4.56-19.55-13.82zm-7.29-19.98l6.53 17.79 1.73-0.62q0.78-0.25 1.54-0.56 0.76-0.31 1.49-0.69 0.72-0.37 1.42-0.81 0.69-0.44 1.35-0.93 0.43-0.38 0.79-0.82 0.36-0.45 0.64-0.95 0.27-0.5 0.46-1.04 0.18-0.55 0.27-1.11 0.09-0.71 0.09-1.43 0-0.72-0.09-1.43-0.1-0.71-0.28-1.4-0.19-0.69-0.47-1.35-0.26-0.95-0.7-1.83-0.43-0.88-1.03-1.66-0.59-0.78-1.32-1.43-0.73-0.66-1.57-1.16-0.93-0.36-1.9-0.52-0.97-0.16-1.96-0.12-0.98 0.04-1.94 0.27-0.96 0.24-1.85 0.66z"/>
	<path class="s0" d="m743.88 956.95l0.5 1.07-20.05 9.28-0.48-1.07 1.26-0.59q0.36-0.15 0.69-0.34 0.34-0.19 0.64-0.42 0.31-0.24 0.58-0.51 0.27-0.27 0.51-0.58 0.14-0.21 0.24-0.44 0.1-0.23 0.17-0.47 0.06-0.25 0.08-0.5 0.02-0.25-0.01-0.5-0.1-0.5-0.24-0.99-0.13-0.49-0.31-0.96-0.17-0.48-0.38-0.94-0.21-0.47-0.45-0.91l-11.91-25.8q-0.2-0.49-0.42-0.96-0.23-0.47-0.49-0.93-0.26-0.45-0.54-0.89-0.29-0.43-0.61-0.85-0.2-0.16-0.42-0.29-0.22-0.13-0.45-0.22-0.24-0.1-0.49-0.15-0.25-0.05-0.5-0.07-0.37-0.01-0.73 0.02-0.37 0.02-0.72 0.1-0.36 0.08-0.7 0.2-0.34 0.12-0.67 0.29l-1.28 0.59-0.5-1.06 20.05-9.27 0.49 1.07-1.27 0.59q-0.35 0.14-0.69 0.34-0.33 0.19-0.64 0.42-0.3 0.24-0.57 0.51-0.28 0.27-0.51 0.57-0.15 0.22-0.25 0.45-0.11 0.23-0.17 0.48-0.07 0.25-0.09 0.5-0.02 0.25 0.01 0.51 0.09 0.49 0.22 0.98 0.14 0.49 0.31 0.96 0.17 0.48 0.38 0.94 0.21 0.46 0.45 0.9l11.93 25.82q0.19 0.49 0.41 0.96 0.22 0.47 0.48 0.92 0.26 0.46 0.55 0.89 0.29 0.43 0.62 0.84 0.2 0.16 0.42 0.29 0.22 0.12 0.46 0.22 0.24 0.09 0.49 0.14 0.25 0.06 0.51 0.07 0.37 0.02 0.73-0.01 0.36-0.03 0.72-0.11 0.36-0.08 0.7-0.2 0.34-0.13 0.67-0.3z"/>
	<path class="s0" d="m764.38 896.63l7.55 13.23-1 0.57q-1.04-1.01-2.22-1.85-1.18-0.84-2.46-1.5-1.29-0.66-2.66-1.12-1.38-0.46-2.8-0.71-1.22-0.2-2.46-0.19-1.24 0.01-2.45 0.23-1.22 0.23-2.39 0.65-1.16 0.42-2.23 1.04-0.95 0.49-1.79 1.16-0.84 0.66-1.55 1.46-0.7 0.81-1.25 1.72-0.55 0.92-0.92 1.93-0.34 1.06-0.52 2.17-0.18 1.1-0.2 2.22-0.01 1.12 0.14 2.23 0.16 1.11 0.47 2.18 0.32 1.23 0.72 2.43 0.4 1.2 0.88 2.37 0.48 1.17 1.04 2.31 0.55 1.14 1.18 2.24 0.66 1.21 1.41 2.37 0.75 1.15 1.59 2.26 0.83 1.1 1.74 2.13 0.91 1.04 1.89 2.01 0.74 0.76 1.59 1.39 0.86 0.62 1.81 1.09 0.95 0.48 1.96 0.78 1.02 0.31 2.07 0.43 1 0.08 2-0.01 1.01-0.08 1.98-0.31 0.98-0.24 1.91-0.62 0.93-0.38 1.79-0.9 0.34-0.2 0.68-0.41 0.33-0.21 0.65-0.44 0.32-0.23 0.63-0.48 0.3-0.24 0.6-0.5 0.32-0.29 0.62-0.59 0.31-0.3 0.61-0.61 0.29-0.3 0.58-0.62 0.28-0.32 0.55-0.65l-4.43-7.81q-0.19-0.38-0.4-0.74-0.21-0.36-0.46-0.7-0.24-0.34-0.51-0.66-0.27-0.32-0.57-0.61-0.21-0.13-0.44-0.22-0.23-0.1-0.47-0.16-0.24-0.06-0.49-0.08-0.25-0.02-0.5-0.01-0.33 0.01-0.67 0.07-0.33 0.05-0.65 0.15-0.33 0.09-0.64 0.23-0.31 0.14-0.59 0.31l-0.95 0.54-0.59-1.02 17.82-10.15 0.59 1.01q-0.36 0.22-0.7 0.46-0.34 0.24-0.65 0.52-0.32 0.27-0.61 0.57-0.29 0.3-0.55 0.63-0.13 0.24-0.23 0.5-0.1 0.26-0.15 0.54-0.06 0.27-0.06 0.55-0.01 0.28 0.03 0.55 0.1 0.36 0.22 0.71 0.13 0.36 0.28 0.7 0.16 0.34 0.34 0.66 0.18 0.33 0.39 0.64l4.43 7.81q-0.64 0.9-1.34 1.77-0.7 0.86-1.44 1.69-0.75 0.83-1.54 1.61-0.79 0.78-1.62 1.53-0.85 0.75-1.74 1.47-0.89 0.71-1.82 1.37-0.93 0.67-1.89 1.28-0.96 0.61-1.95 1.18-1.09 0.66-2.24 1.21-1.15 0.55-2.34 0.98-1.2 0.44-2.43 0.75-1.23 0.32-2.49 0.51-1.04 0.13-2.07 0.16-1.04 0.04-2.08 0-1.04-0.05-2.07-0.18-1.04-0.13-2.05-0.34-0.96-0.2-1.89-0.49-0.94-0.29-1.84-0.67-0.9-0.38-1.76-0.83-0.86-0.46-1.68-1-1.05-0.72-2.01-1.56-0.95-0.84-1.8-1.78-0.86-0.95-1.59-1.98-0.74-1.04-1.35-2.16-1.18-1.97-1.94-4.13-0.75-2.17-1.06-4.44-0.3-2.27-0.14-4.56 0.17-2.29 0.79-4.5 0.61-2.26 1.67-4.35 1.05-2.08 2.51-3.91 1.46-1.83 3.26-3.32 1.8-1.5 3.87-2.6 0.62-0.36 1.25-0.68 0.63-0.33 1.28-0.63 0.65-0.29 1.31-0.56 0.67-0.26 1.34-0.49 0.56-0.16 1.13-0.3 0.57-0.14 1.14-0.26 0.57-0.11 1.15-0.21 0.58-0.09 1.16-0.17 0.47-0.04 0.94-0.11 0.48-0.06 0.94-0.16 0.47-0.09 0.93-0.22 0.46-0.12 0.92-0.27 0.19-0.1 0.36-0.25 0.18-0.14 0.32-0.32 0.14-0.18 0.24-0.37 0.1-0.2 0.16-0.42 0.09-0.35 0.14-0.7 0.04-0.36 0.04-0.72 0-0.35-0.04-0.71-0.05-0.35-0.14-0.7z"/>
	<path class="s0" d="m795.59 903.52l7.87 10.83q0.28 0.44 0.59 0.86 0.31 0.42 0.66 0.82 0.34 0.39 0.71 0.76 0.37 0.37 0.77 0.7 0.23 0.13 0.47 0.21 0.24 0.09 0.5 0.13 0.25 0.04 0.51 0.05 0.25 0 0.51-0.04 0.36-0.05 0.71-0.15 0.35-0.1 0.68-0.24 0.34-0.15 0.65-0.33 0.31-0.19 0.6-0.42l1.14-0.83 0.69 0.95-17.84 12.99-0.71-0.95 1.14-0.83q0.32-0.22 0.61-0.47 0.29-0.25 0.54-0.54 0.26-0.29 0.47-0.61 0.21-0.32 0.38-0.66 0.1-0.23 0.16-0.48 0.06-0.24 0.07-0.5 0.01-0.25-0.02-0.5-0.03-0.25-0.1-0.49-0.2-0.47-0.43-0.92-0.23-0.45-0.49-0.88-0.26-0.44-0.55-0.85-0.3-0.41-0.62-0.8l-16.73-22.99q-0.28-0.44-0.59-0.86-0.31-0.42-0.65-0.82-0.34-0.4-0.71-0.77-0.37-0.37-0.77-0.71-0.22-0.12-0.46-0.21-0.24-0.08-0.49-0.13-0.25-0.04-0.51-0.04-0.25-0.01-0.5 0.04-0.37 0.05-0.72 0.14-0.35 0.1-0.69 0.25-0.33 0.15-0.64 0.34-0.31 0.19-0.6 0.42l-1.14 0.81-0.69-0.95 17.84-12.93 0.71 0.95-1.14 0.83q-0.32 0.21-0.61 0.47-0.29 0.25-0.54 0.54-0.25 0.29-0.47 0.6-0.21 0.32-0.38 0.67-0.1 0.23-0.16 0.48-0.06 0.25-0.07 0.5-0.02 0.25 0.01 0.51 0.03 0.25 0.1 0.49 0.19 0.47 0.41 0.93 0.23 0.45 0.49 0.88 0.27 0.44 0.56 0.85 0.3 0.41 0.63 0.8l7.2 9.89 12.08-8.77-7.2-9.89q-0.28-0.44-0.59-0.86-0.31-0.42-0.65-0.82-0.34-0.39-0.71-0.76-0.36-0.37-0.76-0.71-0.22-0.12-0.47-0.21-0.24-0.08-0.49-0.13-0.25-0.04-0.51-0.05-0.26-0.01-0.51 0.03-0.37 0.05-0.72 0.16-0.36 0.1-0.69 0.25-0.34 0.15-0.65 0.34-0.32 0.19-0.6 0.42l-1.11 0.8-0.71-0.95 17.83-12.97 0.7 0.97-1.12 0.79q-0.32 0.21-0.6 0.47-0.29 0.25-0.54 0.54-0.25 0.29-0.47 0.61-0.21 0.32-0.37 0.66-0.1 0.24-0.16 0.49-0.06 0.24-0.08 0.5-0.02 0.26 0.01 0.51 0.02 0.26 0.09 0.5 0.19 0.47 0.42 0.92 0.23 0.45 0.49 0.89 0.27 0.43 0.56 0.84 0.29 0.42 0.62 0.81l16.73 23q0.28 0.44 0.59 0.86 0.31 0.42 0.65 0.81 0.34 0.39 0.71 0.76 0.37 0.37 0.76 0.71 0.23 0.13 0.47 0.21 0.24 0.09 0.5 0.13 0.25 0.04 0.51 0.05 0.25 0 0.51-0.04 0.36-0.06 0.71-0.16 0.36-0.1 0.69-0.25 0.34-0.15 0.65-0.33 0.32-0.19 0.61-0.42l1.1-0.81 0.69 0.95-17.82 12.97-0.69-0.95 1.11-0.81q0.32-0.21 0.61-0.46 0.29-0.26 0.54-0.54 0.26-0.29 0.47-0.61 0.21-0.33 0.38-0.67 0.1-0.24 0.15-0.48 0.06-0.25 0.08-0.51 0.01-0.25-0.01-0.5-0.03-0.25-0.1-0.5-0.19-0.47-0.42-0.92-0.23-0.45-0.49-0.89-0.26-0.43-0.56-0.84-0.29-0.41-0.62-0.8l-7.87-10.9z"/>
	<path class="s0" d="m837.03 840.47l7.83 8.64-0.83 0.76q-0.63-0.47-1.29-0.89-0.67-0.42-1.36-0.77-0.7-0.36-1.42-0.66-0.73-0.3-1.48-0.53-0.53-0.13-1.08-0.19-0.55-0.06-1.1-0.04-0.55 0.01-1.1 0.1-0.54 0.09-1.07 0.25-0.48 0.2-0.95 0.45-0.46 0.25-0.89 0.54-0.44 0.29-0.84 0.63-0.4 0.34-0.77 0.71l-2.33 2.11 22.26 24.81q0.32 0.41 0.67 0.8 0.36 0.38 0.74 0.74 0.38 0.35 0.79 0.68 0.4 0.32 0.84 0.62 0.23 0.1 0.48 0.16 0.25 0.06 0.5 0.08 0.26 0.02 0.52 0 0.25-0.03 0.5-0.09 0.36-0.09 0.7-0.23 0.34-0.14 0.67-0.32 0.32-0.19 0.61-0.41 0.3-0.23 0.56-0.49l1.03-0.93 0.8 0.88-16.46 14.76-0.78-0.88 1.04-0.93q0.29-0.24 0.55-0.52 0.26-0.29 0.48-0.6 0.22-0.31 0.39-0.65 0.18-0.34 0.31-0.7 0.08-0.24 0.12-0.49 0.04-0.25 0.04-0.51 0-0.26-0.04-0.51-0.04-0.25-0.12-0.49-0.25-0.45-0.52-0.87-0.28-0.43-0.58-0.83-0.31-0.4-0.64-0.78-0.34-0.38-0.7-0.73l-22.26-24.82-2.28 2.04q-0.68 0.49-1.25 1.1-0.57 0.61-1.01 1.31-0.45 0.71-0.75 1.49-0.3 0.78-0.44 1.61-0.05 1.03 0.09 2.06 0.13 1.03 0.43 2.02 0.3 1 0.77 1.92 0.46 0.93 1.07 1.77l-0.88 0.79-7.82-8.63z"/>
	<path class="s0" d="m876.75 832.22l9.03 7.87q0.4 0.4 0.82 0.76 0.43 0.36 0.88 0.69 0.46 0.32 0.94 0.61 0.47 0.29 0.97 0.53 0.26 0.07 0.52 0.09 0.27 0.03 0.53 0.01 0.27-0.03 0.53-0.09 0.25-0.07 0.5-0.18 0.43-0.25 0.84-0.53 0.41-0.29 0.79-0.62 0.38-0.33 0.72-0.69 0.34-0.37 0.65-0.77l0.88 0.78-14.09 16.16-0.9-0.77q0.36-0.36 0.69-0.75 0.32-0.39 0.59-0.81 0.28-0.43 0.51-0.88 0.23-0.45 0.4-0.93 0.07-0.25 0.1-0.51 0.02-0.27 0.01-0.53-0.02-0.26-0.07-0.51-0.06-0.26-0.16-0.5-0.31-0.46-0.65-0.89-0.35-0.44-0.73-0.84-0.39-0.4-0.8-0.77-0.41-0.37-0.86-0.7l-21.15-18.44q-0.39-0.4-0.82-0.76-0.42-0.36-0.87-0.68-0.45-0.33-0.93-0.62-0.47-0.28-0.97-0.53-0.26-0.07-0.52-0.1-0.27-0.02-0.53 0-0.27 0.02-0.53 0.09-0.25 0.07-0.49 0.18-0.44 0.24-0.85 0.53-0.41 0.29-0.79 0.62-0.38 0.33-0.72 0.69-0.35 0.37-0.65 0.77l-0.9-0.78 12.09-13.82q5.96-6.9 11.07-7.66 1.17-0.22 2.37-0.17 1.19 0.05 2.34 0.37 1.15 0.32 2.2 0.89 1.04 0.58 1.93 1.38 0.76 0.62 1.38 1.38 0.63 0.75 1.11 1.6 0.48 0.86 0.8 1.79 0.32 0.92 0.46 1.89 0.14 1.03 0.1 2.06-0.03 1.04-0.22 2.06-0.2 1.01-0.55 1.99-0.36 0.97-0.87 1.87-0.65 1.1-1.36 2.17-0.71 1.06-1.48 2.08-0.77 1.03-1.59 2.01-0.82 0.98-1.7 1.91zm-15.94-13.92l14.08 12.28q0.71-0.73 1.07-1.12 0.57-0.58 1-1.28 0.43-0.69 0.71-1.45 0.27-0.77 0.37-1.58 0.1-0.81 0.02-1.62-0.2-0.93-0.56-1.81-0.37-0.88-0.88-1.68-0.52-0.8-1.17-1.5-0.66-0.69-1.43-1.26-0.65-0.68-1.42-1.23-0.76-0.54-1.62-0.94-0.85-0.4-1.77-0.63-0.91-0.23-1.85-0.29-0.84 0.07-1.65 0.31-0.81 0.25-1.55 0.65-0.74 0.41-1.38 0.97-0.63 0.55-1.14 1.23z"/>
	<path class="s0" d="m884.66 788.86l14.25 10.36 0.48-0.69q0.55-0.63 0.93-1.38 0.37-0.74 0.55-1.56 0.17-0.81 0.14-1.65-0.03-0.83-0.27-1.63-0.39-0.93-0.9-1.8-0.5-0.87-1.11-1.67-0.61-0.8-1.32-1.52-0.7-0.72-1.49-1.35l0.69-0.96 18.32 13.29-0.7 0.97q-0.67-0.41-1.38-0.77-0.7-0.35-1.43-0.64-0.73-0.29-1.49-0.51-0.75-0.22-1.52-0.38-0.53-0.11-1.06-0.14-0.54-0.04-1.07 0.01-0.54 0.05-1.06 0.19-0.52 0.13-1.01 0.34-0.51 0.3-0.98 0.66-0.47 0.36-0.89 0.77-0.43 0.41-0.8 0.86-0.38 0.46-0.7 0.96l9.85 7.16q0.42 0.35 0.87 0.67 0.44 0.32 0.91 0.61 0.46 0.29 0.95 0.55 0.48 0.26 0.98 0.49 0.21 0.06 0.43 0.08 0.22 0.02 0.44 0.01 0.22-0.02 0.44-0.07 0.21-0.05 0.42-0.14 0.29-0.16 0.57-0.36 0.27-0.19 0.52-0.42 0.25-0.23 0.46-0.49 0.22-0.26 0.4-0.55l1.47-2.03q0.79-0.99 1.41-2.09 0.62-1.1 1.04-2.29 0.43-1.19 0.64-2.44 0.22-1.25 0.22-2.51-0.1-1.26-0.4-2.5-0.31-1.23-0.8-2.4-0.5-1.16-1.18-2.23-0.68-1.07-1.52-2.02l0.67-0.94 10 9.61-21.45 29.51-0.95-0.69 0.83-1.12q0.24-0.31 0.43-0.64 0.2-0.33 0.35-0.68 0.15-0.36 0.25-0.73 0.11-0.37 0.16-0.75 0.02-0.25 0-0.5-0.02-0.25-0.08-0.49-0.07-0.25-0.17-0.48-0.11-0.22-0.25-0.43-0.33-0.39-0.69-0.75-0.35-0.36-0.74-0.69-0.38-0.33-0.79-0.63-0.41-0.3-0.83-0.57l-23.01-16.7q-0.35-0.28-0.72-0.54-0.37-0.27-0.74-0.52-0.38-0.25-0.76-0.48-0.39-0.24-0.78-0.47-0.25-0.08-0.51-0.13-0.26-0.05-0.53-0.05-0.26 0-0.52 0.05-0.27 0.05-0.51 0.13-0.41 0.15-0.78 0.36-0.38 0.2-0.71 0.47-0.34 0.27-0.62 0.59-0.29 0.31-0.52 0.67l-0.83 1.14-0.95-0.7 20.72-28.58 10.37 7.51-0.71 0.96q-0.8-0.43-1.63-0.77-0.84-0.34-1.72-0.58-0.87-0.24-1.76-0.38-0.9-0.14-1.8-0.18-0.7 0.04-1.39 0.2-0.69 0.15-1.35 0.4-0.66 0.25-1.27 0.6-0.62 0.35-1.17 0.78-0.62 0.55-1.19 1.13-0.58 0.59-1.12 1.21-0.54 0.62-1.04 1.28-0.5 0.65-0.95 1.34z"/>
	<path class="s0" d="m908.63 746.84q0.98-2.04 2.37-3.82 1.39-1.78 3.13-3.23 1.74-1.44 3.75-2.47 2.02-1.03 4.2-1.6 2.15-0.55 4.37-0.66 2.22-0.11 4.42 0.23 2.19 0.34 4.27 1.11 2.09 0.77 3.97 1.94 1.7 0.95 3.21 2.17 1.52 1.22 2.81 2.67 1.3 1.45 2.33 3.09 1.04 1.64 1.79 3.44 0.98 2.34 1.38 4.85 0.39 2.51 0.16 5.04-0.22 2.53-1.05 4.93-0.83 2.41-2.22 4.54-5.75 9.84-15.71 11.24-1.98 0.27-3.98 0.2-1.99-0.07-3.94-0.48-1.96-0.41-3.81-1.15-1.86-0.74-3.56-1.78-1.95-1.07-3.65-2.51-1.7-1.45-3.07-3.2-1.37-1.76-2.36-3.75-0.99-2-1.55-4.15-0.58-2.11-0.7-4.29-0.11-2.18 0.24-4.34 0.36-2.15 1.17-4.18 0.81-2.03 2.03-3.84zm1.95 0.71c-1.95 3.33-1.72 6.91 0.8 10.65q3.05 4.63 11.1 9.33 9.53 5.56 16.03 4.96 1.08-0.09 2.1-0.45 1.02-0.35 1.93-0.95 0.9-0.59 1.63-1.39 0.73-0.8 1.24-1.76 0.39-0.6 0.67-1.25 0.28-0.66 0.45-1.35 0.17-0.69 0.22-1.4 0.06-0.71-0.01-1.42-0.16-0.97-0.46-1.9-0.31-0.93-0.74-1.81-0.44-0.88-1.01-1.68-0.56-0.81-1.24-1.52-1.01-1.08-2.11-2.07-1.09-1-2.26-1.9-1.17-0.91-2.41-1.71-1.24-0.81-2.55-1.52-1.36-0.88-2.79-1.65-1.44-0.77-2.93-1.42-1.49-0.65-3.03-1.18-1.53-0.53-3.11-0.93-0.89-0.21-1.8-0.3-0.91-0.08-1.82-0.03-0.91 0.05-1.81 0.23-0.89 0.19-1.75 0.5-0.69 0.3-1.31 0.7-0.63 0.41-1.18 0.91-0.55 0.5-1.02 1.08-0.46 0.58-0.83 1.23z"/>
	<path class="s0" d="m949.49 721.06l10.9 5.01q0.48 0.26 0.99 0.49 0.51 0.23 1.03 0.41 0.53 0.19 1.07 0.33 0.54 0.14 1.09 0.23 0.26 0 0.52-0.06 0.26-0.05 0.51-0.15 0.25-0.09 0.47-0.23 0.23-0.14 0.43-0.32 0.35-0.35 0.67-0.74 0.31-0.39 0.58-0.81 0.27-0.42 0.49-0.86 0.23-0.45 0.4-0.92l1.07 0.48-8.96 19.48-1.07-0.48q0.24-0.44 0.44-0.91 0.19-0.47 0.34-0.95 0.14-0.49 0.23-0.99 0.09-0.5 0.13-1-0.01-0.26-0.05-0.52-0.05-0.26-0.14-0.5-0.09-0.25-0.21-0.48-0.13-0.23-0.29-0.43-0.43-0.36-0.89-0.67-0.46-0.32-0.94-0.6-0.48-0.27-0.98-0.51-0.51-0.24-1.03-0.44l-25.47-11.74q-0.49-0.26-1-0.49-0.51-0.22-1.03-0.41-0.52-0.18-1.06-0.32-0.54-0.15-1.09-0.25-0.26 0.01-0.52 0.06-0.26 0.06-0.51 0.15-0.24 0.1-0.47 0.23-0.23 0.14-0.43 0.31-0.36 0.36-0.68 0.77-0.31 0.4-0.58 0.84-0.28 0.43-0.5 0.9-0.23 0.46-0.4 0.94l-1.07-0.5 7.7-16.7q3.82-8.25 8.46-10.46 1.07-0.55 2.23-0.84 1.16-0.28 2.35-0.3 1.2-0.01 2.36 0.24 1.17 0.26 2.25 0.77 0.9 0.39 1.71 0.94 0.81 0.54 1.51 1.22 0.71 0.68 1.27 1.48 0.57 0.8 0.98 1.68 0.42 0.95 0.68 1.96 0.27 1 0.36 2.03 0.1 1.03 0.03 2.07-0.07 1.03-0.31 2.04-0.31 1.24-0.7 2.45-0.38 1.21-0.83 2.41-0.44 1.19-0.96 2.35-0.51 1.17-1.08 2.31zm-19.2-8.86l16.95 7.82q0.5-0.91 0.71-1.4 0.39-0.72 0.61-1.5 0.22-0.79 0.27-1.6 0.05-0.81-0.08-1.62-0.13-0.81-0.43-1.56-0.46-0.84-1.06-1.58-0.6-0.74-1.33-1.36-0.72-0.62-1.54-1.11-0.83-0.48-1.72-0.81-0.82-0.46-1.71-0.77-0.89-0.31-1.82-0.45-0.93-0.14-1.87-0.1-0.94 0.03-1.85 0.24-0.79 0.3-1.5 0.76-0.71 0.46-1.3 1.06-0.6 0.6-1.05 1.32-0.45 0.71-0.75 1.5z"/>
	<path class="s0" d="m976.6 664.33l13.82 6.6-12.61 35.29-1.12-0.39 0.48-1.32q0.15-0.35 0.25-0.73 0.09-0.37 0.14-0.75 0.04-0.39 0.04-0.77-0.01-0.39-0.07-0.77-0.04-0.25-0.13-0.49-0.09-0.24-0.22-0.46-0.13-0.22-0.3-0.42-0.17-0.19-0.36-0.36-0.43-0.28-0.87-0.53-0.45-0.25-0.91-0.47-0.46-0.22-0.94-0.4-0.47-0.18-0.96-0.32l-26.82-9.53q-0.48-0.21-0.98-0.38-0.49-0.17-0.99-0.31-0.51-0.13-1.02-0.23-0.52-0.1-1.04-0.16-0.25 0.03-0.5 0.09-0.25 0.06-0.48 0.16-0.23 0.11-0.45 0.25-0.21 0.14-0.4 0.32-0.27 0.24-0.5 0.53-0.23 0.28-0.43 0.59-0.19 0.31-0.34 0.64-0.16 0.34-0.26 0.69l-0.47 1.31-1.1-0.4 7.56-21.19 1.11 0.4-0.61 1.73q-0.15 0.35-0.24 0.72-0.1 0.38-0.15 0.76-0.04 0.38-0.04 0.76 0.01 0.38 0.07 0.76 0.04 0.25 0.13 0.49 0.09 0.24 0.22 0.46 0.13 0.22 0.29 0.42 0.16 0.2 0.36 0.36 0.42 0.29 0.86 0.54 0.44 0.25 0.9 0.47 0.46 0.22 0.94 0.4 0.47 0.18 0.96 0.32l25.9 9.27q0.49 0.21 1 0.38 0.5 0.18 1.02 0.31 0.52 0.13 1.04 0.23 0.52 0.1 1.05 0.15 0.26-0.02 0.5-0.09 0.24-0.08 0.46-0.2 0.23-0.12 0.42-0.28 0.19-0.16 0.35-0.36 0.25-0.4 0.47-0.82 0.22-0.42 0.42-0.86 0.19-0.43 0.35-0.87 0.17-0.45 0.3-0.9l1.19-3.32q0.27-0.67 0.45-1.38 0.18-0.7 0.27-1.42 0.1-0.71 0.1-1.44 0.01-0.72-0.08-1.44-0.12-0.68-0.32-1.34-0.21-0.66-0.5-1.28-0.29-0.63-0.66-1.21-0.37-0.58-0.81-1.11-0.68-0.79-1.42-1.53-0.73-0.74-1.51-1.43-0.78-0.7-1.6-1.33-0.83-0.64-1.69-1.22z"/>
	<path class="s0" d="m957.26 637.84l17.05 4.37 0.2-0.81q0.28-0.79 0.35-1.63 0.07-0.83-0.06-1.65-0.14-0.83-0.48-1.59-0.34-0.77-0.86-1.42-0.71-0.72-1.5-1.34-0.79-0.63-1.65-1.15-0.86-0.52-1.77-0.93-0.92-0.41-1.88-0.71l0.29-1.14 21.91 5.61-0.29 1.16q-0.77-0.14-1.56-0.21-0.78-0.08-1.57-0.08-0.78 0-1.57 0.08-0.78 0.07-1.55 0.21-0.53 0.09-1.04 0.25-0.51 0.17-0.99 0.41-0.48 0.24-0.92 0.55-0.43 0.31-0.82 0.69-0.36 0.47-0.66 0.98-0.3 0.5-0.55 1.04-0.24 0.54-0.42 1.1-0.18 0.57-0.3 1.15l11.79 3.02q0.53 0.16 1.06 0.3 0.53 0.13 1.07 0.23 0.54 0.11 1.08 0.18 0.55 0.06 1.09 0.1 0.22-0.03 0.44-0.09 0.21-0.06 0.41-0.16 0.19-0.1 0.37-0.22 0.18-0.13 0.34-0.29 0.22-0.26 0.4-0.54 0.18-0.28 0.32-0.59 0.15-0.3 0.25-0.62 0.11-0.32 0.17-0.65l0.62-2.43q0.38-1.21 0.54-2.46 0.17-1.25 0.13-2.51-0.05-1.27-0.31-2.5-0.26-1.24-0.72-2.41-0.56-1.14-1.3-2.18-0.73-1.03-1.62-1.94-0.9-0.9-1.92-1.65-1.03-0.75-2.16-1.33l0.33-1.16 12.83 5.18-9.05 35.34-1.15-0.3 0.36-1.34q0.1-0.38 0.15-0.76 0.05-0.38 0.05-0.76 0-0.39-0.05-0.77-0.05-0.38-0.15-0.75-0.07-0.24-0.19-0.47-0.11-0.22-0.26-0.42-0.15-0.2-0.33-0.38-0.19-0.17-0.4-0.31-0.44-0.23-0.91-0.44-0.46-0.2-0.94-0.37-0.48-0.17-0.97-0.3-0.49-0.12-0.99-0.22l-27.63-7.06q-0.43-0.13-0.85-0.24-0.43-0.11-0.86-0.21-0.44-0.09-0.87-0.17-0.44-0.08-0.88-0.14-0.26 0-0.52 0.05-0.26 0.04-0.51 0.13-0.25 0.09-0.48 0.22-0.23 0.13-0.44 0.29-0.33 0.28-0.6 0.62-0.28 0.33-0.5 0.7-0.22 0.37-0.38 0.77-0.16 0.41-0.24 0.83l-0.35 1.37-1.14-0.3 8.89-34.09 12.39 3.18-0.3 1.12q-0.9-0.11-1.8-0.11-0.91-0.01-1.81 0.09-0.9 0.1-1.78 0.31-0.89 0.2-1.74 0.51-0.63 0.3-1.21 0.69-0.59 0.39-1.1 0.86-0.52 0.48-0.96 1.02-0.44 0.55-0.79 1.16-0.37 0.73-0.7 1.48-0.32 0.76-0.59 1.54-0.27 0.77-0.5 1.56-0.22 0.79-0.38 1.6z"/>
</svg>