<svg width="815" height="261" viewBox="0 0 815 261" fill="none" xmlns="http://www.w3.org/2000/svg">
<path d="M164.398 208.999H122.098C115.498 208.999 109.598 205.099 107.098 198.999L57.8984 82.1992H97.9984C105.798 82.1992 112.798 86.8992 115.798 93.9992L164.398 208.999Z" fill="white"/>
<path d="M235.703 208.999H193.403C186.803 208.999 180.903 205.099 178.403 198.999L129.203 82.1992H169.303C177.103 82.1992 184.103 86.8992 187.103 93.9992L235.703 208.999Z" fill="white"/>
<path d="M244.403 186.4L217.703 126.5L233.203 90.2999C235.303 85.2999 240.303 81.9999 245.703 82.0999L289.003 82.1999L244.403 186.4Z" fill="white"/>
<path d="M331.498 176.6L316.398 113.5H329.498L339.098 156.9L350.698 113.5H365.898L376.998 157.6L386.698 113.5H399.598L384.198 176.6H370.598L357.998 129.4L345.398 176.6H331.498Z" fill="white"/>
<path d="M430.998 162.001L443.098 164.001C441.798 168.101 439.198 171.601 435.698 174.101C432.398 176.401 428.198 177.601 423.098 177.601C415.098 177.601 409.198 175.001 405.398 169.801C402.398 165.601 400.898 160.401 400.898 154.001C400.898 146.401 402.898 140.501 406.898 136.201C410.798 132.001 416.298 129.601 421.998 129.801C428.798 129.801 434.198 132.001 438.198 136.501C442.198 141.001 443.998 147.901 443.898 157.201H413.398C413.498 160.801 414.498 163.601 416.298 165.601C418.098 167.601 420.598 168.701 423.298 168.601C424.998 168.701 426.698 168.101 428.098 167.001C429.498 165.701 430.598 163.901 430.998 162.001ZM431.698 149.801C431.598 146.301 430.698 143.601 428.998 141.801C427.398 140.001 425.098 139.001 422.698 139.101C420.198 139.001 417.798 140.101 416.098 142.001C414.298 144.201 413.398 147.001 413.498 149.801H431.698Z" fill="white"/>
<path d="M453.203 176.6V113.5H465.303V136.2C469.103 132 473.503 129.8 478.603 129.8C483.903 129.7 489.003 131.9 492.503 135.9C496.203 139.9 498.003 145.7 498.003 153.3C498.003 161.1 496.103 167.1 492.403 171.3C489.003 175.3 484.103 177.7 478.803 177.6C476.103 177.6 473.403 176.9 471.003 175.6C468.403 174.2 466.103 172.2 464.403 169.8V176.5L453.203 176.6ZM465.203 152.7C465.203 157.4 466.003 160.9 467.403 163.2C469.103 166.2 472.303 168 475.803 168C478.503 168 481.003 166.7 482.703 164.6C484.603 162.3 485.503 158.7 485.503 153.8C485.503 148.6 484.503 144.8 482.603 142.5C480.803 140.3 478.103 139 475.303 139C472.503 139 469.803 140.2 468.003 142.4C466.203 144.7 465.203 148.1 465.203 152.7Z" fill="white"/>
<path d="M507.203 176.6V113.5H519.403V136.2C523.203 132 527.603 129.8 532.703 129.8C538.003 129.7 543.103 131.9 546.603 135.9C550.303 139.9 552.103 145.7 552.103 153.3C552.103 161.1 550.203 167.1 546.503 171.3C543.103 175.3 538.203 177.7 532.903 177.6C530.203 177.6 527.503 176.9 525.103 175.6C522.503 174.2 520.203 172.2 518.503 169.8V176.5L507.203 176.6ZM519.303 152.7C519.303 157.4 520.103 160.9 521.503 163.2C523.203 166.2 526.403 168 529.903 168C532.603 168 535.103 166.7 536.703 164.6C538.603 162.3 539.503 158.7 539.503 153.8C539.503 148.6 538.503 144.8 536.703 142.5C534.903 140.3 532.203 139 529.403 139C526.603 139 523.903 140.2 522.103 142.4C520.303 144.7 519.303 148.1 519.303 152.7Z" fill="white"/>
<path d="M561.898 124.6V113.4H573.998V124.6H561.898ZM561.898 176.6V130.8H573.998V176.5L561.898 176.6Z" fill="white"/>
<path d="M607.498 130.899V140.499H599.198V158.899C599.098 161.099 599.198 163.299 599.398 165.399C599.598 165.999 599.898 166.599 600.498 166.899C601.098 167.299 601.798 167.499 602.598 167.499C604.298 167.399 605.898 166.999 607.498 166.299L608.498 175.699C605.498 176.999 602.198 177.599 598.898 177.499C596.898 177.499 594.898 177.199 592.998 176.399C591.498 175.799 590.098 174.899 589.098 173.599C588.198 172.199 587.598 170.599 587.398 168.899C587.098 166.099 586.898 163.199 586.998 160.399V140.499H581.398V130.899H586.998V121.799L599.198 114.699V130.899H607.498Z" fill="white"/>
<path d="M642.498 162.001L654.598 164.001C653.298 168.101 650.698 171.601 647.198 174.101C643.898 176.401 639.698 177.601 634.598 177.601C626.598 177.601 620.698 175.001 616.898 169.801C613.898 165.601 612.398 160.401 612.398 154.001C612.398 146.401 614.398 140.501 618.398 136.201C622.298 132.001 627.798 129.601 633.498 129.801C640.298 129.801 645.698 132.001 649.698 136.501C653.698 141.001 655.498 147.901 655.398 157.201H624.898C624.998 160.801 625.998 163.601 627.798 165.601C629.598 167.601 632.098 168.701 634.798 168.601C636.498 168.701 638.198 168.101 639.598 167.001C641.098 165.701 642.098 163.901 642.498 162.001ZM643.198 149.801C643.098 146.301 642.198 143.601 640.498 141.801C637.198 138.301 631.598 138.101 628.098 141.501C627.898 141.701 627.798 141.801 627.598 142.001C625.798 144.201 624.898 147.001 625.098 149.801H643.198Z" fill="white"/>
<path d="M705.198 144.4L693.198 146.5C692.998 144.4 691.998 142.5 690.398 141.1C688.798 139.8 686.898 139.2 684.798 139.3C681.998 139.2 679.398 140.3 677.598 142.4C675.798 144.5 674.898 148 674.898 152.8C674.898 158.2 675.798 162.1 677.598 164.3C679.398 166.5 682.098 167.8 684.998 167.7C687.098 167.8 689.098 167.1 690.698 165.7C692.198 164.4 693.198 162.1 693.798 159L705.698 161C704.498 166.5 702.098 170.6 698.598 173.4C695.098 176.2 690.398 177.6 684.498 177.6C677.798 177.6 672.398 175.5 668.398 171.3C664.398 167.1 662.398 161.2 662.398 153.8C662.398 146.3 664.398 140.4 668.398 136.2C672.398 132 677.798 129.9 684.698 129.9C690.298 129.9 694.698 131.1 697.998 133.5C701.298 135.9 703.798 139.4 705.198 144.4Z" fill="white"/>
<path d="M726.502 113.4V136.6C730.402 132 735.102 129.7 740.502 129.7C743.102 129.7 745.702 130.2 748.102 131.3C750.102 132.2 751.902 133.5 753.202 135.3C754.302 136.9 755.102 138.7 755.502 140.6C756.002 143.6 756.202 146.6 756.102 149.7V176.5H743.902V152.3C743.902 147.5 743.702 144.5 743.202 143.2C742.802 141.9 741.902 140.8 740.702 140.1C739.402 139.3 737.902 138.9 736.302 139C734.402 139 732.502 139.5 730.902 140.5C729.302 141.5 728.002 143.1 727.402 144.9C726.502 147.7 726.202 150.7 726.302 153.6V176.5H714.102V113.4H726.502Z" fill="white"/>
</svg>
